<svg width="390.000000" height="38.000000" viewBox="0 0 390 38" fill="none" xmlns="http://www.w3.org/2000/svg" xmlns:xlink="http://www.w3.org/1999/xlink">
	<desc>
			Created with Pixso.
	</desc>
	<defs>
		<clipPath id="clip1_1285">
			<rect id="Лого белый горизонтальный (9) 1" rx="0.000000" width="389.000000" height="37.000000" transform="translate(0.500000 0.500000)" fill="white" fill-opacity="0"/>
		</clipPath>
	</defs>
	<rect id="Лого белый горизонтальный (9) 1" rx="0.000000" width="389.000000" height="37.000000" transform="translate(0.500000 0.500000)" fill="#FFFFFF" fill-opacity="0"/>
	<g clip-path="url(#clip1_1285)">
		<path id="Vector" d="M338.01 37.54L342.21 27.42L343.79 27.42L347.99 37.54L346.33 37.54L345.24 34.86L340.76 34.86L339.67 37.54L338.01 37.54ZM343 29.22L341.34 33.41L344.66 33.41L343 29.22Z" fill="#1E1E1E" fill-opacity="1.000000" fill-rule="nonzero"/>
		<path id="Vector" d="M331.15 27.42L338.81 27.42L338.81 28.86L335.77 28.86L335.77 37.54L334.18 37.54L334.18 28.86L331.15 28.86L331.15 27.42Z" fill="#1E1E1E" fill-opacity="1.000000" fill-rule="nonzero"/>
		<path id="Vector" d="M323.05 27.42L327.1 27.42C328.06 27.42 328.87 27.73 329.52 28.37C330.18 29 330.5 29.77 330.5 30.68C330.5 31.58 330.18 32.35 329.52 32.98C328.87 33.61 328.06 33.92 327.1 33.92L324.64 33.92L324.64 37.54L323.05 37.54L323.05 27.42ZM327.1 28.86L324.64 28.86L324.64 32.48L327.1 32.48C327.6 32.48 328.02 32.3 328.38 31.96C328.73 31.61 328.91 31.18 328.91 30.68C328.91 30.16 328.73 29.73 328.38 29.39C328.02 29.04 327.6 28.86 327.1 28.86Z" fill="#1E1E1E" fill-opacity="1.000000" fill-rule="nonzero"/>
		<path id="Vector" d="M313.21 29.82C312.49 30.54 312.13 31.43 312.13 32.48C312.13 33.52 312.49 34.41 313.21 35.14C313.94 35.87 314.83 36.24 315.88 36.24C316.94 36.24 317.83 35.87 318.55 35.14C319.28 34.41 319.65 33.52 319.65 32.48C319.65 31.43 319.28 30.54 318.55 29.82C317.83 29.09 316.94 28.72 315.88 28.72C314.83 28.72 313.94 29.09 313.21 29.82ZM312.08 36.17C311.05 35.16 310.54 33.93 310.54 32.48C310.54 31.02 311.05 29.79 312.08 28.79C313.1 27.78 314.37 27.28 315.88 27.28C317.4 27.28 318.67 27.78 319.69 28.79C320.72 29.79 321.23 31.02 321.23 32.48C321.23 33.93 320.72 35.16 319.69 36.17C318.67 37.17 317.4 37.68 315.88 37.68C314.37 37.68 313.1 37.17 312.08 36.17Z" fill="#1E1E1E" fill-opacity="1.000000" fill-rule="nonzero"/>
		<path id="Vector" d="M308.73 27.42L308.73 37.54L307.15 37.54L307.15 28.86L302.15 28.86L302.15 37.54L300.56 37.54L300.56 27.42L308.73 27.42Z" fill="#1E1E1E" fill-opacity="1.000000" fill-rule="nonzero"/>
		<path id="Vector" d="M294.85 27.28C295.37 27.28 295.86 27.34 296.33 27.48C296.8 27.61 297.19 27.77 297.5 27.97C297.81 28.16 298.08 28.35 298.31 28.54C298.54 28.73 298.71 28.89 298.82 29.03L298.97 29.22L297.96 30.24C297.93 30.2 297.89 30.15 297.84 30.08C297.78 30.01 297.66 29.89 297.47 29.71C297.27 29.53 297.07 29.38 296.85 29.25C296.63 29.12 296.34 29 295.98 28.89C295.62 28.78 295.25 28.72 294.85 28.72C293.81 28.72 292.92 29.09 292.19 29.82C291.46 30.54 291.09 31.43 291.09 32.48C291.09 33.52 291.45 34.41 292.18 35.14C292.91 35.87 293.8 36.24 294.85 36.24C295.25 36.24 295.63 36.18 295.99 36.07C296.35 35.96 296.65 35.83 296.88 35.67C297.12 35.52 297.33 35.36 297.51 35.21C297.69 35.06 297.83 34.93 297.92 34.82L298.03 34.64L299.05 35.66C299.01 35.71 298.95 35.79 298.87 35.88C298.8 35.97 298.63 36.13 298.36 36.36C298.1 36.59 297.81 36.8 297.51 36.98C297.21 37.16 296.82 37.32 296.34 37.46C295.86 37.61 295.36 37.68 294.85 37.68C293.34 37.68 292.07 37.17 291.04 36.17C290.02 35.16 289.5 33.93 289.5 32.48C289.5 31.02 290.02 29.79 291.04 28.79C292.07 27.78 293.34 27.28 294.85 27.28Z" fill="#1E1E1E" fill-opacity="1.000000" fill-rule="nonzero"/>
		<path id="Vector" d="M280.83 27.42L284.88 27.42C285.84 27.42 286.65 27.73 287.3 28.37C287.95 29 288.28 29.77 288.28 30.68C288.28 31.58 287.95 32.35 287.3 32.98C286.65 33.61 285.84 33.92 284.88 33.92L282.42 33.92L282.42 37.54L280.83 37.54L280.83 27.42ZM284.88 28.86L282.42 28.86L282.42 32.48L284.88 32.48C285.37 32.48 285.8 32.3 286.15 31.96C286.51 31.61 286.68 31.18 286.68 30.68C286.68 30.16 286.51 29.73 286.15 29.39C285.8 29.04 285.37 28.86 284.88 28.86Z" fill="#1E1E1E" fill-opacity="1.000000" fill-rule="nonzero"/>
		<path id="Vector" d="M273.45 36.09L279.16 36.09L279.16 37.54L271.86 37.54L271.86 27.42L279.02 27.42L279.02 28.86L273.45 28.86L273.45 31.54L277.86 31.54L277.86 32.98L273.45 32.98L273.45 36.09Z" fill="#1E1E1E" fill-opacity="1.000000" fill-rule="nonzero"/>
		<path id="Vector" d="M264.2 36.09L266.8 36.09C267.27 36.09 267.67 35.93 267.98 35.62C268.3 35.3 268.46 34.9 268.46 34.43C268.46 33.96 268.3 33.56 267.98 33.25C267.67 32.93 267.27 32.77 266.8 32.77L264.2 32.77L264.2 36.09ZM266.8 37.54L262.61 37.54L262.61 27.42L269.26 27.42L269.26 28.86L264.2 28.86L264.2 31.32L266.8 31.32C267.74 31.32 268.51 31.62 269.13 32.21C269.75 32.81 270.06 33.55 270.06 34.43C270.06 35.31 269.75 36.04 269.13 36.64C268.51 37.24 267.74 37.54 266.8 37.54Z" fill="#1E1E1E" fill-opacity="1.000000" fill-rule="nonzero"/>
		<path id="Vector" d="M260.22 37.54L258.63 37.54L258.63 30.24L252.99 37.54L251.62 37.54L251.62 27.42L253.21 27.42L253.21 34.72L258.85 27.42L260.22 27.42L260.22 37.54Z" fill="#1E1E1E" fill-opacity="1.000000" fill-rule="nonzero"/>
		<path id="Vector" d="M243.66 27.42L243.66 32.33L248.21 27.42L250.24 27.42L246.33 31.61L250.53 37.54L248.57 37.54L245.25 32.77L243.66 34.5L243.66 37.54L242.07 37.54L242.07 27.42L243.66 27.42Z" fill="#1E1E1E" fill-opacity="1.000000" fill-rule="nonzero"/>
		<path id="Vector" d="M237.29 37.54L235.7 37.54L235.7 30.24L230.06 37.54L228.69 37.54L228.69 27.42L230.28 27.42L230.28 34.72L235.92 27.42L237.29 27.42L237.29 37.54Z" fill="#1E1E1E" fill-opacity="1.000000" fill-rule="nonzero"/>
		<path id="Vector" d="M389.85 24.16L388.26 24.16L388.26 16.86L382.62 24.16L381.25 24.16L381.25 14.04L382.84 14.04L382.84 21.34L388.48 14.04L389.85 14.04L389.85 24.16Z" fill="#1E1E1E" fill-opacity="1.000000" fill-rule="nonzero"/>
		<path id="Vector" d="M378.86 24.16L377.27 24.16L377.27 16.86L371.63 24.16L370.26 24.16L370.26 14.04L371.85 14.04L371.85 21.34L377.49 14.04L378.86 14.04L378.86 24.16Z" fill="#1E1E1E" fill-opacity="1.000000" fill-rule="nonzero"/>
		<path id="Vector" d="M361.01 14.04L365.06 14.04C366.02 14.04 366.83 14.36 367.48 14.99C368.13 15.62 368.46 16.39 368.46 17.3C368.46 18.2 368.13 18.97 367.48 19.6C366.83 20.23 366.02 20.55 365.06 20.55L362.6 20.55L362.6 24.16L361.01 24.16L361.01 14.04ZM365.06 15.49L362.6 15.49L362.6 19.1L365.06 19.1C365.56 19.1 365.98 18.93 366.33 18.58C366.69 18.24 366.86 17.81 366.86 17.3C366.86 16.79 366.69 16.36 366.33 16.01C365.98 15.66 365.56 15.49 365.06 15.49Z" fill="#1E1E1E" fill-opacity="1.000000" fill-rule="nonzero"/>
		<path id="Vector" d="M352.11 14.04L359.77 14.04L359.77 15.49L356.73 15.49L356.73 24.16L355.14 24.16L355.14 15.49L352.11 15.49L352.11 14.04Z" fill="#1E1E1E" fill-opacity="1.000000" fill-rule="nonzero"/>
		<path id="Vector" d="M347.56 13.9C348.07 13.9 348.56 13.97 349.04 14.1C349.51 14.24 349.89 14.4 350.2 14.59C350.51 14.78 350.78 14.97 351.01 15.16C351.24 15.35 351.41 15.51 351.52 15.65L351.68 15.85L350.67 16.86C350.64 16.83 350.6 16.77 350.54 16.71C350.49 16.64 350.36 16.51 350.17 16.33C349.98 16.15 349.77 16 349.55 15.87C349.33 15.74 349.04 15.62 348.68 15.52C348.33 15.4 347.95 15.35 347.56 15.35C346.51 15.35 345.62 15.71 344.89 16.44C344.16 17.16 343.79 18.05 343.79 19.1C343.79 20.15 344.16 21.04 344.88 21.77C345.61 22.5 346.51 22.86 347.56 22.86C347.95 22.86 348.33 22.81 348.69 22.7C349.05 22.59 349.35 22.45 349.59 22.3C349.83 22.14 350.03 21.99 350.21 21.84C350.4 21.68 350.53 21.55 350.62 21.44L350.74 21.27L351.75 22.28C351.72 22.34 351.66 22.41 351.58 22.51C351.5 22.6 351.33 22.76 351.06 22.99C350.8 23.22 350.52 23.42 350.21 23.6C349.92 23.78 349.53 23.94 349.04 24.09C348.56 24.23 348.07 24.3 347.56 24.3C346.04 24.3 344.77 23.8 343.75 22.79C342.72 21.78 342.21 20.55 342.21 19.1C342.21 17.65 342.72 16.42 343.75 15.41C344.77 14.4 346.04 13.9 347.56 13.9Z" fill="#1E1E1E" fill-opacity="1.000000" fill-rule="nonzero"/>
		<path id="Vector" d="M335.41 14.04L338.16 19.32L340.62 14.04L342.28 14.04L338.67 21.7C338.24 22.61 337.78 23.27 337.28 23.69C336.79 24.1 336.14 24.3 335.34 24.3C335.17 24.3 334.99 24.28 334.83 24.24C334.66 24.21 334.53 24.17 334.44 24.13L334.33 24.09L334.33 22.71C334.52 22.81 334.81 22.86 335.19 22.86C335.66 22.86 336.03 22.77 336.3 22.58C336.57 22.39 336.81 22.1 337 21.7L337.36 20.98L333.74 14.04L335.41 14.04Z" fill="#1E1E1E" fill-opacity="1.000000" fill-rule="nonzero"/>
		<path id="Vector" d="M323.26 22.71L323.84 22.71C323.88 22.68 323.94 22.61 324.02 22.52C324.1 22.43 324.24 22.22 324.43 21.89C324.63 21.56 324.81 21.21 324.96 20.81C325.11 20.42 325.26 19.89 325.38 19.22C325.51 18.54 325.57 17.83 325.57 17.07L325.57 14.04L332.15 14.04L332.15 22.71L333.38 22.71L333.38 26.33L331.79 26.33L331.79 24.16L324.85 24.16L324.85 26.33L323.26 26.33L323.26 22.71ZM327.16 17.07C327.16 17.83 327.1 18.54 326.98 19.21C326.86 19.87 326.72 20.41 326.55 20.81C326.38 21.22 326.21 21.58 326.04 21.89C325.87 22.19 325.72 22.4 325.6 22.53L325.42 22.71L330.56 22.71L330.56 15.49L327.16 15.49L327.16 17.07Z" fill="#1E1E1E" fill-opacity="1.000000" fill-rule="nonzero"/>
		<path id="Vector" d="M322.32 14.04L322.32 24.16L320.73 24.16L320.73 19.75L315.74 19.75L315.74 24.16L314.15 24.16L314.15 14.04L315.74 14.04L315.74 18.31L320.73 18.31L320.73 14.04L322.32 14.04Z" fill="#1E1E1E" fill-opacity="1.000000" fill-rule="nonzero"/>
		<path id="Vector" d="M311.76 24.16L310.17 24.16L310.17 16.86L304.53 24.16L303.16 24.16L303.16 14.04L304.75 14.04L304.75 21.34L310.39 14.04L311.76 14.04L311.76 24.16Z" fill="#1E1E1E" fill-opacity="1.000000" fill-rule="nonzero"/>
		<path id="Vector" d="M298.39 24.16L296.8 24.16L296.8 16.86L291.16 24.16L289.78 24.16L289.78 14.04L291.37 14.04L291.37 21.34L297.01 14.04L298.39 14.04L298.39 24.16Z" fill="#1E1E1E" fill-opacity="1.000000" fill-rule="nonzero"/>
		<path id="Vector" d="M279.94 16.44C279.22 17.16 278.86 18.05 278.86 19.1C278.86 20.15 279.22 21.04 279.94 21.77C280.68 22.5 281.56 22.86 282.61 22.86C283.67 22.86 284.56 22.5 285.28 21.77C286.01 21.04 286.38 20.15 286.38 19.1C286.38 18.05 286.01 17.16 285.28 16.44C284.56 15.71 283.67 15.35 282.61 15.35C281.56 15.35 280.68 15.71 279.94 16.44ZM278.81 22.79C277.78 21.78 277.27 20.55 277.27 19.1C277.27 17.65 277.78 16.42 278.81 15.41C279.84 14.4 281.1 13.9 282.61 13.9C284.13 13.9 285.4 14.4 286.43 15.41C287.45 16.42 287.97 17.65 287.97 19.1C287.97 20.55 287.45 21.78 286.43 22.79C285.4 23.8 284.13 24.3 282.61 24.3C281.1 24.3 279.84 23.8 278.81 22.79Z" fill="#1E1E1E" fill-opacity="1.000000" fill-rule="nonzero"/>
		<path id="Vector" d="M272.79 24.16L268.45 24.16L268.45 14.04L272.57 14.04C273.39 14.04 274.09 14.31 274.67 14.85C275.25 15.39 275.54 16.01 275.54 16.71C275.54 17.12 275.45 17.49 275.28 17.83C275.12 18.17 274.95 18.4 274.79 18.54L274.53 18.74C274.57 18.76 274.62 18.79 274.68 18.84C274.75 18.88 274.88 18.98 275.06 19.13C275.24 19.27 275.39 19.44 275.51 19.62C275.65 19.79 275.77 20.03 275.88 20.31C275.99 20.6 276.05 20.89 276.05 21.2C276.05 22 275.73 22.7 275.11 23.28C274.49 23.87 273.72 24.16 272.79 24.16ZM270.04 22.78L272.79 22.78C273.26 22.78 273.66 22.63 273.98 22.31C274.3 21.99 274.46 21.6 274.46 21.13C274.46 20.65 274.3 20.26 273.98 19.94C273.66 19.62 273.26 19.46 272.79 19.46L270.04 19.46L270.04 22.78ZM272.57 15.42L270.04 15.42L270.04 18.16L272.57 18.16C272.97 18.16 273.29 18.03 273.55 17.77C273.82 17.51 273.95 17.18 273.95 16.79C273.95 16.4 273.82 16.07 273.55 15.81C273.29 15.55 272.97 15.42 272.57 15.42Z" fill="#1E1E1E" fill-opacity="1.000000" fill-rule="nonzero"/>
		<path id="Vector" d="M258.61 16.44C257.89 17.16 257.53 18.05 257.53 19.1C257.53 20.15 257.89 21.04 258.61 21.77C259.35 22.5 260.23 22.86 261.28 22.86C262.34 22.86 263.23 22.5 263.95 21.77C264.68 21.04 265.05 20.15 265.05 19.1C265.05 18.05 264.68 17.16 263.95 16.44C263.23 15.71 262.34 15.35 261.28 15.35C260.23 15.35 259.35 15.71 258.61 16.44ZM257.48 22.79C256.45 21.78 255.94 20.55 255.94 19.1C255.94 17.65 256.45 16.42 257.48 15.41C258.5 14.4 259.77 13.9 261.28 13.9C262.8 13.9 264.07 14.4 265.1 15.41C266.12 16.42 266.64 17.65 266.64 19.1C266.64 20.55 266.12 21.78 265.1 22.79C264.07 23.8 262.8 24.3 261.28 24.3C259.77 24.3 258.5 23.8 257.48 22.79Z" fill="#1E1E1E" fill-opacity="1.000000" fill-rule="nonzero"/>
		<path id="Vector" d="M247.27 14.04L251.31 14.04C252.28 14.04 253.08 14.36 253.73 14.99C254.39 15.62 254.71 16.39 254.71 17.3C254.71 18.2 254.39 18.97 253.73 19.6C253.08 20.23 252.28 20.55 251.31 20.55L248.85 20.55L248.85 24.16L247.27 24.16L247.27 14.04ZM251.31 15.49L248.85 15.49L248.85 19.1L251.31 19.1C251.81 19.1 252.24 18.93 252.59 18.58C252.94 18.24 253.12 17.81 253.12 17.3C253.12 16.79 252.94 16.36 252.59 16.01C252.24 15.66 251.81 15.49 251.31 15.49Z" fill="#1E1E1E" fill-opacity="1.000000" fill-rule="nonzero"/>
		<path id="Vector" d="M239.68 24.16L239.68 14.04L246.18 14.04L246.18 15.49L241.27 15.49L241.27 24.16L239.68 24.16Z" fill="#1E1E1E" fill-opacity="1.000000" fill-rule="nonzero"/>
		<path id="Vector" d="M237.29 24.16L235.7 24.16L235.7 16.86L230.06 24.16L228.69 24.16L228.69 14.04L230.28 14.04L230.28 21.34L235.92 14.04L237.29 14.04L237.29 24.16Z" fill="#1E1E1E" fill-opacity="1.000000" fill-rule="nonzero"/>
		<path id="Vector" d="M301.51 0.66L309.17 0.66L309.17 2.11L306.14 2.11L306.14 10.78L304.55 10.78L304.55 2.11L301.51 2.11L301.51 0.66Z" fill="#1E1E1E" fill-opacity="1.000000" fill-rule="nonzero"/>
		<path id="Vector" d="M295.29 9.34L301 9.34L301 10.78L293.7 10.78L293.7 0.66L300.86 0.66L300.86 2.11L295.29 2.11L295.29 4.79L299.7 4.79L299.7 6.23L295.29 6.23L295.29 9.34Z" fill="#1E1E1E" fill-opacity="1.000000" fill-rule="nonzero"/>
		<path id="Vector" d="M284.8 0.66L292.46 0.66L292.46 2.11L289.42 2.11L289.42 10.78L287.84 10.78L287.84 2.11L284.8 2.11L284.8 0.66Z" fill="#1E1E1E" fill-opacity="1.000000" fill-rule="nonzero"/>
		<path id="Vector" d="M281.91 10.78L277.86 10.78L277.86 0.66L279.45 0.66L279.45 4.28L281.91 4.28C282.87 4.28 283.68 4.59 284.33 5.23C284.99 5.86 285.31 6.63 285.31 7.54C285.31 8.44 284.99 9.21 284.33 9.84C283.68 10.47 282.87 10.78 281.91 10.78ZM279.45 9.34L281.91 9.34C282.41 9.34 282.83 9.17 283.19 8.82C283.54 8.47 283.72 8.05 283.72 7.54C283.72 7.02 283.54 6.59 283.19 6.25C282.84 5.9 282.41 5.72 281.91 5.72L279.45 5.72L279.45 9.34Z" fill="#1E1E1E" fill-opacity="1.000000" fill-rule="nonzero"/>
		<path id="Vector" d="M275.47 0.66L275.47 10.78L273.88 10.78L273.88 2.11L270.2 2.11L270.2 3.7C270.2 5.15 270.13 6.37 269.99 7.35C269.85 8.33 269.63 9.07 269.34 9.58C269.06 10.08 268.75 10.44 268.4 10.64C268.07 10.83 267.65 10.92 267.16 10.92C266.99 10.92 266.8 10.91 266.61 10.87C266.42 10.83 266.27 10.79 266.16 10.76L266 10.71L266 9.2C266.29 9.29 266.55 9.34 266.79 9.34C267.07 9.34 267.31 9.27 267.51 9.13C267.71 8.99 267.9 8.73 268.08 8.35C268.26 7.97 268.39 7.39 268.47 6.61C268.56 5.84 268.6 4.87 268.6 3.7L268.6 0.66L275.47 0.66Z" fill="#1E1E1E" fill-opacity="1.000000" fill-rule="nonzero"/>
		<path id="Vector" d="M260.15 0.66L262.9 5.94L265.35 0.66L267.02 0.66L263.4 8.33C262.98 9.24 262.52 9.9 262.02 10.31C261.52 10.72 260.88 10.92 260.08 10.92C259.9 10.92 259.73 10.91 259.56 10.87C259.39 10.83 259.26 10.79 259.18 10.76L259.06 10.71L259.06 9.34C259.25 9.43 259.54 9.48 259.93 9.48C260.4 9.48 260.77 9.39 261.04 9.2C261.31 9.01 261.54 8.72 261.74 8.33L262.1 7.6L258.48 0.66L260.15 0.66Z" fill="#1E1E1E" fill-opacity="1.000000" fill-rule="nonzero"/>
		<path id="Vector" d="M251.54 0.66L251.54 5.58L256.09 0.66L258.12 0.66L254.21 4.86L258.41 10.78L256.45 10.78L253.13 6.01L251.54 7.75L251.54 10.78L249.95 10.78L249.95 0.66L251.54 0.66Z" fill="#1E1E1E" fill-opacity="1.000000" fill-rule="nonzero"/>
		<path id="Vector" d="M238.73 10.78L242.93 0.66L244.52 0.66L248.71 10.78L247.05 10.78L245.96 8.11L241.48 8.11L240.39 10.78L238.73 10.78ZM243.73 2.47L242.06 6.66L245.39 6.66L243.73 2.47Z" fill="#1E1E1E" fill-opacity="1.000000" fill-rule="nonzero"/>
		<path id="Vector" d="M237.54 2.69C238.38 3.47 238.81 4.43 238.81 5.58C238.81 6.73 238.38 7.69 237.54 8.47C236.69 9.25 235.57 9.66 234.18 9.7L234.18 11.07L232.6 11.07L232.6 9.7C231.21 9.66 230.09 9.25 229.23 8.47C228.39 7.69 227.96 6.73 227.96 5.58C227.96 4.43 228.39 3.47 229.23 2.69C230.09 1.91 231.21 1.5 232.6 1.46L232.6 0.37L234.18 0.37L234.18 1.46C235.57 1.5 236.69 1.91 237.54 2.69ZM236.42 7.54C236.95 7.04 237.22 6.39 237.22 5.58C237.22 4.77 236.95 4.12 236.42 3.63C235.89 3.14 235.15 2.88 234.18 2.84L234.18 8.33C235.15 8.29 235.89 8.03 236.42 7.54ZM230.35 3.63C229.82 4.12 229.56 4.77 229.56 5.58C229.56 6.39 229.82 7.04 230.35 7.54C230.88 8.03 231.63 8.29 232.6 8.33L232.6 2.84C231.63 2.88 230.88 3.14 230.35 3.63Z" fill="#1E1E1E" fill-opacity="1.000000" fill-rule="nonzero"/>
		<path id="Vector" d="M292.34 12L296.3 12L296.3 13.52L292.34 13.52L292.34 12Z" fill="#1E1E1E" fill-opacity="1.000000" fill-rule="nonzero"/>
		<path id="Vector" d="M22.52 22.78L18.76 19.04L22.52 15.29L22.52 7.79L11.27 19.04L22.52 30.28L22.52 22.78Z" fill="#FF0A47" fill-opacity="1.000000" fill-rule="nonzero"/>
		<path id="Vector" d="M0 0.27L0 37.79L37.53 37.79L37.53 0.27L0 0.27ZM32.17 32.43L5.36 32.43L5.36 5.63L32.17 5.63L32.17 32.43Z" fill="#FF0A47" fill-opacity="1.000000" fill-rule="nonzero"/>
		<path id="Vector" d="M215.26 0.65L215.26 37.4L217.41 37.4L217.41 0.65L215.26 0.65Z" fill="#FF0A47" fill-opacity="1.000000" fill-rule="nonzero"/>
		<path id="Vector" d="M46.85 13.54L46.85 10.4C46.98 10.45 47.08 10.48 47.16 10.49C47.41 10.55 47.68 10.59 47.96 10.59C48.89 10.59 49.55 10.22 49.9 9.47L50 9.29L45.55 0.69L49.44 0.69L51.81 6.06L51.88 6.06L53.88 0.69L57.77 0.69L53.24 10.31C52.69 11.46 52.03 12.33 51.29 12.93C50.56 13.53 49.63 13.83 48.52 13.83C48.05 13.83 47.65 13.78 47.3 13.7L46.85 13.54Z" fill="#1E1E1E" fill-opacity="1.000000" fill-rule="nonzero"/>
		<path id="Vector" d="M60.54 13.63L60.54 0.69L64.06 0.69L64.06 5.4L68.78 5.4L68.78 0.69L72.3 0.69L72.3 13.63L68.78 13.63L68.78 8.73L64.06 8.73L64.06 13.63L60.54 13.63Z" fill="#1E1E1E" fill-opacity="1.000000" fill-rule="nonzero"/>
		<path id="Vector" d="M76.74 13.63L76.74 0.69L80.26 0.69L80.26 7.8L85.82 0.69L88.87 0.69L88.87 13.63L85.35 13.63L85.35 6.52L79.79 13.63L76.74 13.63Z" fill="#1E1E1E" fill-opacity="1.000000" fill-rule="nonzero"/>
		<path id="Vector" d="M93.31 13.63L93.31 0.69L99.05 0.69C100.47 0.69 101.58 1.01 102.39 1.66C103.19 2.32 103.58 3.14 103.58 4.1C103.58 4.97 103.26 5.69 102.6 6.25C102.36 6.46 102.04 6.64 101.64 6.79C102.12 6.96 102.55 7.19 102.94 7.48C103.8 8.15 104.24 9 104.24 10.03C104.24 11.06 103.83 11.92 102.99 12.61C102.15 13.3 101 13.64 99.52 13.64L93.31 13.64L93.31 13.63ZM96.83 5.69L98.77 5.69C99.14 5.69 99.44 5.58 99.65 5.38C99.87 5.17 99.97 4.91 99.97 4.57C99.97 4.24 99.87 3.97 99.65 3.77C99.43 3.56 99.14 3.46 98.77 3.46L96.83 3.46L96.83 5.69ZM96.83 10.86L99.24 10.86C99.64 10.86 99.97 10.73 100.24 10.49C100.49 10.25 100.63 9.94 100.63 9.57C100.63 9.21 100.5 8.9 100.24 8.65C99.97 8.41 99.64 8.29 99.24 8.29L96.83 8.29L96.83 10.86Z" fill="#1E1E1E" fill-opacity="1.000000" fill-rule="nonzero"/>
		<path id="Vector" d="M107.84 13.63L107.84 0.69L117.75 0.69L117.75 3.84L111.36 3.84L111.36 5.69L116.26 5.69L116.26 8.64L111.36 8.64L111.36 10.49L117.93 10.49L117.93 13.63L107.84 13.63Z" fill="#1E1E1E" fill-opacity="1.000000" fill-rule="nonzero"/>
		<path id="Vector" d="M121.62 13.63L121.62 0.69L127.45 0.69C128.87 0.69 130.03 1.11 130.93 1.97C131.83 2.84 132.27 3.92 132.27 5.22C132.27 6.53 131.83 7.61 130.93 8.46C130.03 9.32 128.88 9.75 127.45 9.75L125.14 9.75L125.14 13.63L121.62 13.63ZM125.14 6.61L127.27 6.61C127.67 6.61 128.03 6.47 128.32 6.19C128.6 5.92 128.75 5.6 128.75 5.23C128.75 4.86 128.6 4.54 128.32 4.26C128.03 3.99 127.67 3.85 127.27 3.85L125.14 3.85L125.14 6.61Z" fill="#1E1E1E" fill-opacity="1.000000" fill-rule="nonzero"/>
		<path id="Vector" d="M145.97 9.1L148.09 11.51C147.67 11.99 147.2 12.4 146.66 12.76C145.45 13.59 144.04 14 142.46 14C140.4 14 138.67 13.33 137.3 12.01C135.92 10.69 135.24 9.07 135.24 7.16C135.24 5.25 135.93 3.63 137.3 2.31C138.68 0.99 140.4 0.32 142.46 0.32C144.01 0.32 145.4 0.73 146.62 1.57C147.16 1.95 147.62 2.36 148.01 2.81L145.89 5.22C145.6 4.91 145.29 4.63 144.94 4.39C144.14 3.84 143.31 3.56 142.46 3.56C141.44 3.56 140.59 3.91 139.89 4.61C139.19 5.31 138.85 6.16 138.85 7.17C138.85 8.18 139.19 9.03 139.89 9.73C140.59 10.44 141.44 10.78 142.46 10.78C143.3 10.78 144.14 10.51 144.98 9.95C145.33 9.69 145.67 9.41 145.97 9.1Z" fill="#1E1E1E" fill-opacity="1.000000" fill-rule="nonzero"/>
		<path id="Vector" d="M151.43 13.63L151.43 0.69L154.95 0.69L154.95 7.8L160.51 0.69L163.56 0.69L163.56 13.63L160.04 13.63L160.04 6.52L154.48 13.63L151.43 13.63Z" fill="#1E1E1E" fill-opacity="1.000000" fill-rule="nonzero"/>
		<path id="Vector" d="M170.5 13.63L170.5 3.83L166.88 3.83L166.88 0.67L177.62 0.67L177.62 3.83L174 3.83L174 13.63L170.5 13.63Z" fill="#1E1E1E" fill-opacity="1.000000" fill-rule="nonzero"/>
		<path id="Vector" d="M180.95 13.63L180.95 0.69L190.86 0.69L190.86 3.84L184.47 3.84L184.47 5.69L189.37 5.69L189.37 8.64L184.47 8.64L184.47 10.49L191.04 10.49L191.04 13.63L180.95 13.63Z" fill="#1E1E1E" fill-opacity="1.000000" fill-rule="nonzero"/>
		<path id="Vector" d="M197.23 13.63L197.23 3.83L193.62 3.83L193.62 0.67L204.35 0.67L204.35 3.83L200.74 3.83L200.74 13.63L197.23 13.63Z" fill="#1E1E1E" fill-opacity="1.000000" fill-rule="nonzero"/>
		<path id="Vector" d="M61.36 30.43L64.63 34.13C63.98 34.87 63.25 35.51 62.41 36.06C60.54 37.34 58.39 37.97 55.94 37.97C52.78 37.97 50.13 36.95 48.02 34.91C45.9 32.88 44.84 30.38 44.84 27.44C44.84 24.5 45.9 22.01 48.02 19.97C50.13 17.93 52.78 16.91 55.94 16.91C58.33 16.91 60.46 17.55 62.35 18.84C63.19 19.43 63.89 20.06 64.49 20.75L61.21 24.45C60.77 23.98 60.29 23.55 59.76 23.18C58.53 22.32 57.25 21.9 55.94 21.9C54.39 21.9 53.07 22.44 52 23.51C50.93 24.58 50.39 25.89 50.39 27.45C50.39 29 50.93 30.33 52 31.4C53.07 32.46 54.38 33.01 55.94 33.01C57.23 33.01 58.52 32.58 59.82 31.73C60.4 31.34 60.91 30.91 61.36 30.43Z" fill="#1E1E1E" fill-opacity="1.000000" fill-rule="nonzero"/>
		<path id="Vector" d="M67 37.41L67 17.5L72.41 17.5L72.41 28.45L80.94 17.5L85.64 17.5L85.64 37.41L80.23 37.41L80.23 26.45L71.69 37.41L67 37.41Z" fill="#1E1E1E" fill-opacity="1.000000" fill-rule="nonzero"/>
		<path id="Vector" d="M89.72 37.41L89.72 17.5L95.13 17.5L95.13 24.75L102.39 24.75L102.39 17.5L107.79 17.5L107.79 37.41L102.39 37.41L102.39 29.87L95.13 29.87L95.13 37.41L89.72 37.41Z" fill="#1E1E1E" fill-opacity="1.000000" fill-rule="nonzero"/>
		<path id="Vector" d="M111.87 37.41L111.87 17.5L127.1 17.5L127.1 22.34L117.27 22.34L117.27 25.18L124.82 25.18L124.82 29.73L117.27 29.73L117.27 32.57L127.37 32.57L127.37 37.41L111.87 37.41Z" fill="#1E1E1E" fill-opacity="1.000000" fill-rule="nonzero"/>
		<path id="Vector" d="M130.31 37.41L130.31 17.5L139.27 17.5C141.46 17.5 143.23 18.15 144.61 19.47C145.99 20.8 146.67 22.45 146.67 24.46C146.67 26.47 145.98 28.14 144.61 29.45C143.23 30.77 141.46 31.43 139.27 31.43L135.72 31.43L135.72 37.41L130.31 37.41ZM135.72 26.59L138.99 26.59C139.61 26.59 140.16 26.37 140.6 25.95C141.05 25.52 141.27 25.03 141.27 24.45C141.27 23.89 141.05 23.38 140.6 22.96C140.16 22.53 139.63 22.31 138.99 22.31L135.72 22.31L135.72 26.59Z" fill="#1E1E1E" fill-opacity="1.000000" fill-rule="nonzero"/>
		<path id="Vector" d="M149.61 37.41L149.61 17.5L163.57 17.5L163.57 22.61L155.03 22.61L155.03 37.41L149.61 37.41Z" fill="#1E1E1E" fill-opacity="1.000000" fill-rule="nonzero"/>
		<path id="Vector" d="M165.93 37.41L165.93 17.5L171.33 17.5L171.33 28.45L179.87 17.5L184.56 17.5L184.56 37.41L179.16 37.41L179.16 26.45L170.62 37.41L165.93 37.41Z" fill="#1E1E1E" fill-opacity="1.000000" fill-rule="nonzero"/>
		<path id="Vector" d="M187.07 37.41L191.2 30.02C190.56 29.72 189.98 29.29 189.5 28.76C188.36 27.62 187.8 26.14 187.8 24.32C187.8 22.39 188.47 20.77 189.85 19.46C191.21 18.15 192.95 17.5 195.06 17.5L204.45 17.5L204.45 37.41L199.05 37.41L199.05 31.15L196.06 31.15L192.78 37.41L187.07 37.41ZM195.33 26.31L199.04 26.31L199.04 22.34L195.33 22.34C194.71 22.34 194.19 22.53 193.79 22.9C193.39 23.28 193.19 23.75 193.19 24.32C193.19 24.9 193.39 25.37 193.79 25.75C194.19 26.12 194.7 26.31 195.33 26.31Z" fill="#1E1E1E" fill-opacity="1.000000" fill-rule="nonzero"/>
	</g>
</svg>
