<svg width="47" height="47" viewBox="0 0 47 47" fill="none" xmlns="http://www.w3.org/2000/svg">
<g clip-path="url(#clip0_99_506)">
<path d="M46.2135 42.3666H45.0904V39.9198C45.0904 39.5987 44.8315 39.3391 44.5124 39.3391H43.8743V7.55486H44.7269C45.0459 7.55486 45.3049 7.29531 45.3049 6.97421V4.06456C45.3049 3.74346 45.0459 3.48391 44.7269 3.48391H35.9715V0.580652C35.9715 0.259551 35.7126 0 35.3935 0H31.4438C31.1248 0 30.8658 0.259551 30.8658 0.580652V3.48391H29.4994V0.580652C29.4994 0.259551 29.2404 0 28.9214 0H24.9717C24.6526 0 24.3937 0.259551 24.3937 0.580652V3.48391H15.6378C15.3187 3.48391 15.0598 3.74346 15.0598 4.06456V6.97421C15.0598 7.29531 15.3187 7.55486 15.6378 7.55486H16.4904V39.3391H15.8523C15.5332 39.3391 15.2742 39.5987 15.2742 39.9198V42.3666H7.81079V42.3655L7.78934 35.6299C11.1777 35.3472 13.8442 32.6739 13.8442 29.424C13.8442 28.1779 13.4528 26.9747 12.7124 25.9441C12.6575 25.8674 12.6002 25.7919 12.5419 25.7176C12.802 25.094 12.9338 24.4408 12.9338 23.7701C12.9338 22.6106 12.5326 21.4835 11.7968 20.5562C11.9986 20.0453 12.1008 19.5117 12.1008 18.9658C12.1008 18.888 12.0986 18.8108 12.0945 18.7318C11.9639 16.278 9.81307 14.356 7.19748 14.356C4.49349 14.356 2.2941 16.4243 2.2941 18.9658C2.2941 19.5117 2.39641 20.0453 2.59815 20.5562C1.86231 21.4835 1.46117 22.6106 1.46117 23.7701C1.46117 24.4396 1.59296 25.0935 1.85307 25.7176C1.01031 26.7861 0.550781 28.0879 0.550781 29.4234C0.550781 32.6826 3.23281 35.3611 6.63448 35.6305L6.65588 42.3661H1.1288C0.809735 42.3661 0.550781 42.6257 0.550781 42.9467V45.8715C0.550781 46.1926 0.809735 46.4521 1.1288 46.4521H46.2147C46.5338 46.4521 46.7927 46.1926 46.7927 45.8715V42.9473C46.7915 42.6262 46.5326 42.3666 46.2135 42.3666ZM1.70568 29.424C1.70568 28.2499 2.15133 27.1037 2.96114 26.1978C3.12068 26.0196 3.1542 25.7612 3.04669 25.5475C2.76114 24.9819 2.61664 24.3839 2.61664 23.7701C2.61664 22.7767 3.0016 21.8098 3.69986 21.048C3.86228 20.8703 3.8987 20.6103 3.79176 20.3948C3.5646 19.9396 3.45015 19.4582 3.45015 18.9653C3.45015 17.0636 5.13104 15.5167 7.19748 15.5167C9.19805 15.5167 10.8425 16.9562 10.9402 18.7922C10.943 18.8497 10.9448 18.9072 10.9448 18.9658C10.9448 19.4588 10.8298 19.9401 10.6032 20.3954C10.4957 20.6108 10.5321 20.871 10.6951 21.0486C11.3933 21.8104 11.7784 22.7772 11.7784 23.7707C11.7784 24.3844 11.6338 24.9819 11.3483 25.5475C11.2402 25.7606 11.2743 26.019 11.4327 26.1973C11.5546 26.3337 11.6696 26.4765 11.7755 26.6241C12.3731 27.4555 12.6887 28.4241 12.6887 29.424C12.6887 32.0375 10.5385 34.194 7.78646 34.4663L7.77843 31.8464L9.70959 29.9065C9.93557 29.6794 9.93557 29.3125 9.70959 29.0854C9.48354 28.8584 9.11823 28.8584 8.89225 29.0854L7.77319 30.2096L7.7663 28.0362C7.76508 27.7157 7.50673 27.4572 7.18823 27.4572H7.1865C6.86743 27.4585 6.60905 27.7192 6.61021 28.0397L6.61715 30.13L5.57728 29.0854C5.35127 28.8584 4.98596 28.8584 4.75996 29.0854C4.53395 29.3125 4.53395 29.6794 4.75996 29.9065L6.62235 31.7779L6.63102 34.4698C3.86749 34.2061 1.70568 32.0444 1.70568 29.424ZM32.0213 1.1613H34.8149V3.48391H32.0213V1.1613ZM25.5492 1.1613H28.3427V3.48391H25.5492V1.1613ZM16.2158 4.64521H44.1488V6.39355H16.2158V4.64521ZM17.6465 7.55486H42.7182V39.3391H36.8739V28.2226C36.8739 27.9015 36.6149 27.6419 36.2958 27.6419H24.1758C23.8567 27.6419 23.5978 27.9015 23.5978 28.2226V39.3391H17.6465V7.55486ZM24.7538 39.3391V28.8032H29.6572V39.3391H24.7538ZM30.8138 28.8032H35.7178V39.3391H30.8138V28.8032ZM16.4303 40.5004H43.9344V42.3666H16.4303V40.5004ZM45.6355 45.2908H1.70568V43.528H45.6355V45.2908Z" fill="#1E1E1E"/>
<path d="M32.8608 25.4032H36.158C36.4444 25.4032 36.6769 25.1631 36.6769 24.8661V20.1338C36.6769 19.8368 36.4444 19.5967 36.158 19.5967H32.8608C32.5743 19.5967 32.3418 19.8368 32.3418 20.1338V24.8661C32.3418 25.1626 32.5743 25.4032 32.8608 25.4032ZM33.3797 20.6708H35.6389V24.3291H33.3797V20.6708Z" fill="#1E1E1E"/>
<path d="M32.8608 16.6933H36.158C36.4444 16.6933 36.6769 16.4532 36.6769 16.1562V11.4238C36.6769 11.1268 36.4444 10.8867 36.158 10.8867H32.8608C32.5743 10.8867 32.3418 11.1268 32.3418 11.4238V16.1562C32.3418 16.4532 32.5743 16.6933 32.8608 16.6933ZM33.3797 11.9614H35.6389V15.6197H33.3797V11.9614Z" fill="#1E1E1E"/>
<path d="M24.1908 25.4032H27.488C27.7745 25.4032 28.007 25.1631 28.007 24.8661V20.1338C28.007 19.8368 27.7745 19.5967 27.488 19.5967H24.1908C23.9044 19.5967 23.6719 19.8368 23.6719 20.1338V24.8661C23.6719 25.1626 23.9044 25.4032 24.1908 25.4032ZM24.7098 20.6708H26.969V24.3291H24.7098V20.6708Z" fill="#1E1E1E"/>
<path d="M24.1908 16.6933H27.488C27.7745 16.6933 28.007 16.4532 28.007 16.1562V11.4238C28.007 11.1268 27.7745 10.8867 27.488 10.8867H24.1908C23.9044 10.8867 23.6719 11.1268 23.6719 11.4238V16.1562C23.6719 16.4532 23.9044 16.6933 24.1908 16.6933ZM24.7098 11.9614H26.969V15.6197H24.7098V11.9614Z" fill="#1E1E1E"/>
</g>
<defs>
<clipPath id="clip0_99_506">
<rect width="47" height="47" fill="white"/>
</clipPath>
</defs>
</svg>
