<svg width="47" height="51" viewBox="0 0 47 51" fill="none" xmlns="http://www.w3.org/2000/svg">
<g clip-path="url(#clip0_99_487)">
<path d="M28.369 11.4935C28.3207 11.3047 28.1759 11.2102 27.9827 11.163L25.1335 10.738L23.8779 8.23521C23.7331 7.90467 23.1536 7.90467 23.0086 8.23521L21.7048 10.738L18.8556 11.163C18.6625 11.2102 18.5175 11.3047 18.4693 11.4935C18.421 11.6825 18.4693 11.8714 18.6141 11.9658L20.6907 13.9492L20.2077 16.7353C20.1594 16.9242 20.2561 17.113 20.4009 17.2075C20.4975 17.2547 20.5941 17.302 20.6907 17.302C20.7872 17.302 20.8355 17.302 20.9322 17.2547L23.4916 15.9325L26.051 17.2547C26.1959 17.3491 26.3891 17.302 26.5823 17.2075C26.7271 17.113 26.8237 16.9242 26.7754 16.7353L26.2925 13.9492L28.369 11.9658C28.369 11.8242 28.4173 11.6352 28.369 11.4935ZM25.3267 13.4297C25.23 13.5242 25.1818 13.713 25.1818 13.8547L25.5681 15.9325L23.6847 14.9408C23.6364 14.8936 23.5399 14.8936 23.4433 14.8936C23.3467 14.8936 23.2984 14.8936 23.2018 14.9408L21.3185 15.9325L21.7048 13.8547C21.7531 13.713 21.6565 13.5242 21.56 13.4297L20.0146 11.9658L22.1394 11.6825C22.2843 11.6825 22.4292 11.5408 22.5258 11.4464L23.4916 9.55745L24.4574 11.4464C24.5057 11.588 24.6506 11.6825 24.8437 11.6825L26.9686 11.9658L25.3267 13.4297Z" fill="white"/>
<path d="M38.9583 27.5107H7.87069C6.83421 27.5086 5.80994 27.2855 4.86562 26.8563C3.92129 26.427 3.07841 25.8013 2.39268 25.0205C1.70695 24.2397 1.19398 23.3216 0.887688 22.3269C0.581384 21.3321 0.488726 20.2835 0.615832 19.2501C0.742938 18.2167 1.08691 17.2223 1.62503 16.3323C2.16314 15.4424 2.88314 14.6773 3.73744 14.0877C4.59173 13.4981 5.56087 13.0973 6.58081 12.9118C7.60075 12.7264 8.64827 12.7605 9.65407 13.0118C9.72088 11.7623 10.1037 10.5503 10.7663 9.49061C11.4288 8.43088 12.3493 7.55826 13.4409 6.95517C14.5324 6.35207 15.759 6.0384 17.0047 6.04376C18.2505 6.04912 19.4743 6.37335 20.5606 6.98583C21.2403 4.72845 22.7051 2.79168 24.6878 1.52872C26.6705 0.265778 29.0391 -0.23922 31.3615 0.105829C33.684 0.450878 35.8056 1.62299 37.3395 3.4084C38.8734 5.19382 39.7174 7.47359 39.7176 9.83202C39.7186 10.8385 39.5646 11.8391 39.2609 12.7984C41.1754 12.8784 42.9825 13.7088 44.2947 15.1117C45.6068 16.5144 46.3195 18.3778 46.2799 20.3024C46.2403 22.2268 45.4516 24.0591 44.0829 25.4063C42.7142 26.7534 40.8744 27.5081 38.9583 27.5086V27.5107ZM7.87069 13.8536C6.20772 13.8536 4.61283 14.5172 3.43691 15.6985C2.261 16.8797 1.60037 18.4819 1.60037 20.1524C1.60037 21.823 2.261 23.4251 3.43691 24.6063C4.61283 25.7877 6.20772 26.4513 7.87069 26.4513H38.9583C39.7817 26.4513 40.597 26.2883 41.3578 25.9718C42.1185 25.6552 42.8098 25.1913 43.3921 24.6063C43.9743 24.0215 44.4362 23.3271 44.7513 22.5629C45.0664 21.7987 45.2286 20.9796 45.2286 20.1524C45.2286 19.3252 45.0664 18.5062 44.7513 17.742C44.4362 16.9778 43.9743 16.2833 43.3921 15.6985C42.8098 15.1136 42.1185 14.6496 41.3578 14.3331C40.597 14.0165 39.7817 13.8536 38.9583 13.8536C38.8197 13.8536 38.6812 13.8585 38.5427 13.8684C38.4531 13.8752 38.3633 13.8588 38.2818 13.8208C38.2002 13.7829 38.1297 13.7246 38.0768 13.6516C38.024 13.5785 37.9907 13.4932 37.9799 13.4036C37.9691 13.3139 37.9814 13.2231 38.0154 13.1395C38.4437 12.09 38.6632 10.9663 38.6614 9.83202C38.6615 7.67054 37.8673 5.58513 36.431 3.97569C34.9948 2.36626 33.0176 1.34611 30.8787 1.11089C28.7398 0.875687 26.5899 1.44197 24.841 2.70114C23.0921 3.96031 21.8676 5.82373 21.4022 7.93399C21.3834 8.01936 21.344 8.09872 21.2873 8.16506C21.2305 8.23132 21.1584 8.28248 21.0772 8.31399C20.9959 8.34543 20.9083 8.35621 20.8219 8.34543C20.7356 8.33456 20.6532 8.30243 20.5823 8.25181C19.6427 7.58756 18.5395 7.19516 17.3932 7.11744C16.2469 7.03972 15.1013 7.27965 14.0813 7.81109C13.0614 8.3425 12.2063 9.14505 11.6093 10.1312C11.0122 11.1173 10.6962 12.2491 10.6955 13.4033C10.6937 13.4917 10.6965 13.5801 10.704 13.6682C10.713 13.7572 10.6994 13.8471 10.6644 13.9294C10.6294 14.0118 10.5743 14.0838 10.5042 14.139C10.434 14.1941 10.351 14.2304 10.263 14.2446C10.1751 14.2588 10.0849 14.2504 10.0011 14.2201C9.31729 13.9756 8.59657 13.8516 7.87069 13.8536Z" fill="white"/>
<path d="M43.1248 20.6846C42.9849 20.6846 42.8508 20.6288 42.7519 20.5295C42.653 20.4301 42.5975 20.2954 42.5975 20.1549C42.5975 19.1856 42.2141 18.2559 41.5318 17.5705C40.8494 16.8849 39.9239 16.4999 38.959 16.4999C38.8191 16.4999 38.685 16.4441 38.5861 16.3448C38.4872 16.2454 38.4316 16.1107 38.4316 15.9701C38.4316 15.8297 38.4872 15.6949 38.5861 15.5956C38.685 15.4963 38.8191 15.4404 38.959 15.4404C40.2034 15.4413 41.3966 15.9382 42.2765 16.8222C43.1565 17.7061 43.6513 18.9048 43.6521 20.1549C43.6521 20.2954 43.5966 20.4301 43.4976 20.5295C43.3988 20.6288 43.2646 20.6846 43.1248 20.6846Z" fill="white"/>
<path d="M27.9537 4.21392C27.9372 4.17937 27.9246 4.14312 27.916 4.10581C27.9003 4.03803 27.8981 3.96782 27.9095 3.89919C27.9209 3.83055 27.9456 3.76484 27.9823 3.70581C28.0189 3.64677 28.0668 3.59557 28.1231 3.55512C28.1795 3.51467 28.2433 3.48578 28.3107 3.47008C29.8968 3.11147 31.557 3.3039 33.0201 4.0159C34.4832 4.72791 35.6625 5.91741 36.3655 7.38996C36.4256 7.51687 36.4329 7.66252 36.386 7.79485C36.339 7.92722 36.2417 8.03539 36.1154 8.09572C35.9891 8.15598 35.8441 8.16337 35.7123 8.11622C35.5806 8.06907 35.4729 7.97129 35.4128 7.84439C34.814 6.58918 33.8089 5.57514 32.562 4.96803C31.315 4.36092 29.9 4.19666 28.5481 4.50208C28.4312 4.52917 28.3086 4.51538 28.2005 4.46299C28.0924 4.41059 28.0053 4.32273 27.9537 4.21392Z" fill="white"/>
<path d="M3.71091 20.6846C3.57106 20.6846 3.43693 20.6288 3.33805 20.5295C3.23915 20.4301 3.18359 20.2954 3.18359 20.1549C3.18359 18.9059 3.67703 17.7078 4.55557 16.8239C5.43411 15.9399 6.62593 15.4424 7.86933 15.4404C8.00918 15.4404 8.14332 15.4962 8.24225 15.5956C8.3411 15.6949 8.39666 15.8297 8.39666 15.9701C8.39666 16.1107 8.3411 16.2454 8.24225 16.3448C8.14332 16.4441 8.00918 16.4999 7.86933 16.4999C6.90564 16.5019 5.98207 16.8878 5.30131 17.573C4.62055 18.2583 4.23823 19.1868 4.23823 20.1549C4.23823 20.2954 4.18267 20.4301 4.08378 20.5295C3.98489 20.6288 3.85077 20.6846 3.71091 20.6846Z" fill="white"/>
<path d="M16.9922 50.8525C16.8523 50.8525 16.7182 50.7967 16.6193 50.6973C16.5204 50.598 16.4648 50.4632 16.4648 50.3228V20.477C16.4648 20.3365 16.5204 20.2018 16.6193 20.1024C16.7182 20.0031 16.8523 19.9473 16.9922 19.9473C17.132 19.9473 17.2662 20.0031 17.365 20.1024C17.4639 20.2018 17.5195 20.3365 17.5195 20.477V50.3228C17.5195 50.4632 17.4639 50.598 17.365 50.6973C17.2662 50.7967 17.132 50.8525 16.9922 50.8525Z" fill="white"/>
<path d="M29.8398 50.8525C29.6999 50.8525 29.5658 50.7967 29.4669 50.6973C29.3681 50.598 29.3125 50.4632 29.3125 50.3228V20.477C29.3125 20.3365 29.3681 20.2018 29.4669 20.1024C29.5658 20.0031 29.6999 19.9473 29.8398 19.9473C29.9797 19.9473 30.1138 20.0031 30.2127 20.1024C30.3115 20.2018 30.3672 20.3365 30.3672 20.477V50.3228C30.3672 50.4632 30.3115 50.598 30.2127 50.6973C30.1138 50.7967 29.9797 50.8525 29.8398 50.8525Z" fill="white"/>
<path d="M29.7145 47.5995H17.0351C16.8953 47.5995 16.7612 47.5436 16.6623 47.4443C16.5634 47.345 16.5078 47.2102 16.5078 47.0698C16.5078 46.9292 16.5634 46.7945 16.6623 46.6951C16.7612 46.5958 16.8953 46.54 17.0351 46.54H29.7145C29.8543 46.54 29.9885 46.5958 30.0874 46.6951C30.1863 46.7945 30.2418 46.9292 30.2418 47.0698C30.2418 47.2102 30.1863 47.345 30.0874 47.4443C29.9885 47.5436 29.8543 47.5995 29.7145 47.5995Z" fill="white"/>
<path d="M29.7145 42.785H17.0351C16.8953 42.785 16.7612 42.7292 16.6623 42.6298C16.5634 42.5305 16.5078 42.3958 16.5078 42.2553C16.5078 42.1148 16.5634 41.9801 16.6623 41.8808C16.7612 41.7814 16.8953 41.7256 17.0351 41.7256H29.7145C29.8543 41.7256 29.9885 41.7814 30.0874 41.8808C30.1863 41.9801 30.2418 42.1148 30.2418 42.2553C30.2418 42.3958 30.1863 42.5305 30.0874 42.6298C29.9885 42.7292 29.8543 42.785 29.7145 42.785Z" fill="white"/>
<path d="M29.7145 37.9725H17.0351C16.8953 37.9725 16.7612 37.9167 16.6623 37.8173C16.5634 37.718 16.5078 37.5833 16.5078 37.4428C16.5078 37.3023 16.5634 37.1676 16.6623 37.0682C16.7612 36.9689 16.8953 36.9131 17.0351 36.9131H29.7145C29.8543 36.9131 29.9885 36.9689 30.0874 37.0682C30.1863 37.1676 30.2418 37.3023 30.2418 37.4428C30.2418 37.5833 30.1863 37.718 30.0874 37.8173C29.9885 37.9167 29.8543 37.9725 29.7145 37.9725Z" fill="white"/>
<path d="M29.7145 33.16H17.0351C16.8953 33.16 16.7612 33.1042 16.6623 33.0048C16.5634 32.9055 16.5078 32.7708 16.5078 32.6303C16.5078 32.4898 16.5634 32.3551 16.6623 32.2558C16.7612 32.1564 16.8953 32.1006 17.0351 32.1006H29.7145C29.8543 32.1006 29.9885 32.1564 30.0874 32.2558C30.1863 32.3551 30.2418 32.4898 30.2418 32.6303C30.2418 32.7708 30.1863 32.9055 30.0874 33.0048C29.9885 33.1042 29.8543 33.16 29.7145 33.16Z" fill="white"/>
<path d="M29.7145 23.6786H17.0351C16.8953 23.6786 16.7612 23.6227 16.6623 23.5234C16.5634 23.4241 16.5078 23.2893 16.5078 23.1489C16.5078 23.0083 16.5634 22.8736 16.6623 22.7742C16.7612 22.6749 16.8953 22.6191 17.0351 22.6191H29.7145C29.8543 22.6191 29.9885 22.6749 30.0874 22.7742C30.1863 22.8736 30.2418 23.0083 30.2418 23.1489C30.2418 23.2893 30.1863 23.4241 30.0874 23.5234C29.9885 23.6227 29.8543 23.6786 29.7145 23.6786Z" fill="white"/>
</g>
<defs>
<clipPath id="clip0_99_487">
<rect width="47" height="50.8525" fill="white"/>
</clipPath>
</defs>
</svg>
