<svg width="62" height="62" viewBox="0 0 62 62" fill="none" xmlns="http://www.w3.org/2000/svg">
<g clip-path="url(#clip0_1_1730)">
<path d="M60.9625 55.8879H59.481V52.6602C59.481 52.2366 59.1394 51.8942 58.7185 51.8942H57.8767V9.96598H59.0014C59.4223 9.96598 59.7639 9.6236 59.7639 9.20002V5.36176C59.7639 4.93818 59.4223 4.5958 59.0014 4.5958H47.4518V0.765966C47.4518 0.342387 47.1102 0 46.6893 0H41.4791C41.0582 0 40.7166 0.342387 40.7166 0.765966V4.5958H38.9141V0.765966C38.9141 0.342387 38.5725 0 38.1516 0H32.9414C32.5205 0 32.1789 0.342387 32.1789 0.765966V4.5958H20.6286C20.2077 4.5958 19.8661 4.93818 19.8661 5.36176V9.20002C19.8661 9.6236 20.2077 9.96598 20.6286 9.96598H21.7533V51.8942H20.9115C20.4906 51.8942 20.149 52.2366 20.149 52.6602V55.8879H10.3036V55.8864L10.2753 47.0012C14.7451 46.6282 18.2625 43.1017 18.2625 38.8146C18.2625 37.1708 17.7463 35.5837 16.7696 34.2241C16.6971 34.123 16.6216 34.0234 16.5446 33.9254C16.8877 33.1027 17.0616 32.241 17.0616 31.3563C17.0616 29.8267 16.5324 28.34 15.5618 27.1167C15.8279 26.4427 15.9628 25.7388 15.9628 25.0187C15.9628 24.9161 15.9598 24.8142 15.9545 24.7101C15.7821 21.4731 12.9449 18.9377 9.49455 18.9377C5.92758 18.9377 3.02626 21.6661 3.02626 25.0187C3.02626 25.7388 3.16122 26.4427 3.42734 27.1167C2.45667 28.34 1.9275 29.8267 1.9275 31.3563C1.9275 32.2395 2.10135 33.102 2.44447 33.9254C1.33275 35.3348 0.726562 37.0521 0.726562 38.8138C0.726562 43.1132 4.26456 46.6466 8.75187 47.002L8.78009 55.8872H1.48906C1.06816 55.8872 0.726562 56.2296 0.726562 56.6531V60.5113C0.726562 60.9349 1.06816 61.2773 1.48906 61.2773H60.9641C61.385 61.2773 61.7266 60.9349 61.7266 60.5113V56.6539C61.725 56.2303 61.3834 55.8879 60.9625 55.8879ZM2.25004 38.8146C2.25004 37.2658 2.83792 35.7538 3.90619 34.5588C4.11664 34.3237 4.16086 33.9828 4.01904 33.701C3.64236 32.9549 3.45174 32.166 3.45174 31.3563C3.45174 30.0458 3.95956 28.7704 4.88066 27.7655C5.09492 27.5311 5.14296 27.188 5.0019 26.9038C4.70224 26.3033 4.55126 25.6683 4.55126 25.018C4.55126 22.5094 6.76861 20.4689 9.49455 20.4689C12.1336 20.4689 14.3029 22.3677 14.4317 24.7897C14.4355 24.8655 14.4378 24.9414 14.4378 25.0187C14.4378 25.669 14.2861 26.304 13.9872 26.9046C13.8454 27.1887 13.8934 27.5319 14.1084 27.7663C15.0295 28.7712 15.5374 30.0465 15.5374 31.3571C15.5374 32.1667 15.3467 32.9549 14.9701 33.701C14.8275 33.9821 14.8725 34.3229 15.0814 34.5581C15.2423 34.7381 15.394 34.9265 15.5336 35.1211C16.322 36.2179 16.7383 37.4956 16.7383 38.8146C16.7383 42.2622 13.9018 45.107 10.2715 45.4662L10.2609 42.0102L12.8084 39.4511C13.1065 39.1516 13.1065 38.6675 12.8084 38.368C12.5102 38.0685 12.0283 38.0685 11.7302 38.368L10.254 39.8509L10.2449 36.9839C10.2433 36.5611 9.90249 36.2202 9.48235 36.2202H9.48006C9.05916 36.2218 8.71832 36.5657 8.71985 36.9885L8.729 39.746L7.35726 38.368C7.05912 38.0685 6.57722 38.0685 6.27909 38.368C5.98095 38.6675 5.98095 39.1516 6.27909 39.4511L8.73586 41.9198L8.7473 45.4708C5.10179 45.123 2.25004 42.2714 2.25004 38.8146ZM42.2409 1.53193H45.926V4.5958H42.2409V1.53193ZM33.7032 1.53193H37.3883V4.5958H33.7032V1.53193ZM21.3911 6.12773H58.2389V8.43405H21.3911V6.12773ZM23.2783 9.96598H56.3517V51.8942H48.6421V37.2298C48.6421 36.8062 48.3005 36.4638 47.8796 36.4638H31.8915C31.4706 36.4638 31.129 36.8062 31.129 37.2298V51.8942H23.2783V9.96598ZM32.654 51.8942V37.9957H39.1223V51.8942H32.654ZM40.648 37.9957H47.1171V51.8942H40.648V37.9957ZM21.674 53.4261H57.956V55.8879H21.674V53.4261ZM60.2 59.7453H2.25004V57.4199H60.2V59.7453Z" fill="white"/>
<path d="M43.3487 33.5113H47.6982C48.0761 33.5113 48.3828 33.1946 48.3828 32.8028V26.5601C48.3828 26.1683 48.0761 25.8516 47.6982 25.8516H43.3487C42.9708 25.8516 42.6641 26.1683 42.6641 26.5601V32.8028C42.6641 33.1939 42.9708 33.5113 43.3487 33.5113ZM44.0333 27.2685H47.0135V32.0944H44.0333V27.2685Z" fill="white"/>
<path d="M43.3487 22.021H47.6982C48.0761 22.021 48.3828 21.7043 48.3828 21.3125V15.0698C48.3828 14.678 48.0761 14.3613 47.6982 14.3613H43.3487C42.9708 14.3613 42.6641 14.678 42.6641 15.0698V21.3125C42.6641 21.7043 42.9708 22.021 43.3487 22.021ZM44.0333 15.7789H47.0135V20.6048H44.0333V15.7789Z" fill="white"/>
<path d="M31.9112 33.5113H36.2607C36.6386 33.5113 36.9453 33.1946 36.9453 32.8028V26.5601C36.9453 26.1683 36.6386 25.8516 36.2607 25.8516H31.9112C31.5333 25.8516 31.2266 26.1683 31.2266 26.5601V32.8028C31.2266 33.1939 31.5333 33.5113 31.9112 33.5113ZM32.5958 27.2685H35.576V32.0944H32.5958V27.2685Z" fill="white"/>
<path d="M31.9112 22.021H36.2607C36.6386 22.021 36.9453 21.7043 36.9453 21.3125V15.0698C36.9453 14.678 36.6386 14.3613 36.2607 14.3613H31.9112C31.5333 14.3613 31.2266 14.678 31.2266 15.0698V21.3125C31.2266 21.7043 31.5333 22.021 31.9112 22.021ZM32.5958 15.7789H35.576V20.6048H32.5958V15.7789Z" fill="white"/>
</g>
<defs>
<clipPath id="clip0_1_1730">
<rect width="62" height="62" fill="white"/>
</clipPath>
</defs>
</svg>
