<svg width="55" height="67" viewBox="0 0 55 67" fill="none" xmlns="http://www.w3.org/2000/svg">
<g clip-path="url(#clip0_1_1701)">
<path d="M19.3533 20.1035C19.9189 20.1035 20.3792 20.5652 20.3792 21.1327C20.3792 21.7009 19.9189 22.1625 19.3533 22.1625C18.7883 22.1625 18.3281 21.7002 18.3281 21.1327C18.3281 20.5652 18.7876 20.1035 19.3533 20.1035Z" fill="#1E1E1E"/>
<path fill-rule="evenodd" clip-rule="evenodd" d="M53.8843 7.2584L27.6986 0.0250674C27.578 -0.0083558 27.4511 -0.0083558 27.3305 0.0250674L1.1455 7.2584C0.844668 7.34195 0.636719 7.6163 0.636719 7.92965C0.636719 8.24299 0.845361 8.51803 1.1455 8.60089L12.0358 11.6097V24.6802C9.46626 26.8959 7.4131 29.615 5.99281 32.6809C5.75436 32.7909 5.5873 33.0297 5.5873 33.3104C5.5873 33.3883 5.6081 33.4601 5.63097 33.5297C5.32044 34.2741 5.03277 35.0303 4.7964 35.8094C0.980528 48.3926 8.06676 61.7493 20.5923 65.5839C22.8811 66.2844 25.2191 66.6319 27.5454 66.6319C31.3876 66.6319 35.1959 65.6842 38.6825 63.8174C44.2805 60.8204 48.3819 55.8125 50.232 49.717C52.9859 40.6356 50.1391 30.8482 42.9919 24.6733V11.6104L53.8836 8.60159C54.1844 8.51803 54.3924 8.24368 54.3924 7.93034C54.3924 7.617 54.1851 7.34195 53.8843 7.2584ZM18.6604 13.4403V15.5996L18.6611 17.1043L18.6604 18.8249L17.7648 22.9408L17.1112 26.0339C15.3859 25.4176 14.0474 24.8285 13.4228 24.5403V15.2646L13.4221 13.8351V11.9933L18.6604 13.4403ZM20.0467 18.8249V17.646L20.046 16.1281V13.8226L27.3298 15.8349C27.3901 15.8516 27.4525 15.86 27.5142 15.86C27.5759 15.86 27.6383 15.8516 27.6986 15.8349L41.6063 11.9926V13.8351V15.2646V24.5403C39.9662 25.2944 33.422 28.1249 27.6251 28.1249C27.6126 28.1249 27.6006 28.1244 27.5887 28.124C27.5649 28.123 27.5414 28.1221 27.5142 28.1249H27.51C25.8596 28.1493 23.9423 27.8979 21.8926 27.4335L20.9423 22.9415L20.0467 18.8249ZM20.7018 28.5051V34.0039H19.5213H19.1858H18.0047V28.5051L19.059 22.2522C19.0806 22.2549 19.1021 22.258 19.1236 22.261C19.1993 22.2716 19.2747 22.2821 19.3536 22.2821C19.4324 22.2821 19.5078 22.2716 19.5835 22.261C19.605 22.258 19.6265 22.2549 19.6482 22.2522L20.6221 28.1277C20.6228 28.1326 20.6241 28.1374 20.6255 28.1423L20.7018 28.5051ZM19.3536 20.1033C19.9192 20.1033 20.3795 20.565 20.3795 21.1325C20.3795 21.7007 19.9192 22.1623 19.3536 22.1623C18.7886 22.1623 18.3284 21.7 18.3284 21.1325C18.3284 20.565 18.7879 20.1033 19.3536 20.1033ZM6.12381 36.2168C6.35325 35.4613 6.6326 34.7288 6.9362 34.0081H12.3207C13.147 34.0081 13.9996 34.6925 14.1819 35.5024L14.8778 38.5982C15.1724 39.908 16.3113 41.4573 17.4709 42.1257L19.3245 43.1939C20.4703 43.854 22.3737 44.1262 23.6574 43.8136L25.9712 43.2503C26.8134 43.0462 28.0057 43.455 28.52 44.1276C29.0648 44.84 29.3081 46.2382 29.0405 47.1197L28.4202 49.162C28.0597 50.3471 27.8254 52.2453 27.885 53.4861C27.9405 54.6281 27.9738 56.0959 27.9585 56.7574C27.9509 57.1181 27.3971 58.0282 26.5479 58.6333C25.8825 59.1068 24.7381 59.0664 24.0962 58.5456C23.2838 57.8861 22.19 56.5388 21.7076 55.6036L21.5287 55.2562C20.9229 54.0815 19.5234 52.8197 18.3422 52.3839C17.1999 51.9633 15.3249 51.8303 14.0751 52.0823L13.2599 52.2467C11.8882 52.5231 10.4956 53.7918 10.088 55.1357L9.72134 56.3452C5.53254 50.7942 3.95282 43.3742 6.12381 36.2168ZM38.0316 62.5898C32.7601 65.4126 26.7101 66.0017 20.9971 64.2533C16.8949 62.9978 13.4145 60.6554 10.768 57.6382L10.7701 57.6334C10.7711 57.6313 10.7723 57.6293 10.7734 57.6273C10.7752 57.6242 10.7771 57.6212 10.7791 57.6182C10.784 57.6105 10.7889 57.6028 10.7916 57.5937L11.4134 55.543C11.6712 54.6907 12.6611 53.789 13.531 53.6135L14.3461 53.4492C15.3478 53.2473 16.9594 53.3594 17.8633 53.6922C18.7159 54.007 19.8533 55.0375 20.297 55.8975L20.4758 56.2449C21.0497 57.3583 22.2565 58.8443 23.2242 59.6297C23.8231 60.1157 24.6112 60.3622 25.3966 60.3622C26.0967 60.3622 26.7933 60.1666 27.3485 59.7697C28.2989 59.0929 29.3213 57.8179 29.3442 56.7887C29.3587 56.1001 29.3254 54.5884 29.2693 53.4165C29.218 52.3511 29.4357 50.5887 29.7455 49.5686L30.3659 47.5271C30.7645 46.2138 30.4373 44.3484 29.6193 43.2795C28.7702 42.1696 27.0269 41.561 25.6454 41.8973L23.3316 42.4607C22.3993 42.6876 20.848 42.4669 20.0142 41.9858L18.1606 40.9176C17.3406 40.4455 16.4388 39.2186 16.2309 38.2918L15.5349 35.196C15.2098 33.749 13.7978 32.6154 12.3214 32.6154H7.57807C8.87914 30.0307 10.662 27.7238 12.8565 25.8124C13.5331 26.1244 14.9568 26.7518 16.8207 27.4084L16.6343 28.2871C16.6246 28.3345 16.6197 28.3832 16.6197 28.432V34.7002C16.6197 35.0846 16.9296 35.3965 17.3129 35.3965H19.1865H19.522H21.3956C21.7789 35.3965 22.0888 35.0846 22.0888 34.7002V28.8978C24.0019 29.301 25.7924 29.5175 27.4088 29.5175H27.5149H27.6272C28.5144 29.5175 29.4142 29.4563 30.3083 29.3497C29.5029 30.5627 28.5401 32.2053 28.4722 32.4246C28.486 32.3801 28.4999 32.355 28.4999 32.355C28.4278 32.4804 28.0479 32.8731 27.6868 33.1955C27.1066 33.7142 26.7545 34.437 26.7205 35.1779C26.69 35.8429 26.9139 36.4682 27.3513 36.9375C28.1547 37.8002 29.7975 38.6121 31.0916 38.7855L32.3768 38.9575C33.4844 39.1058 35.2513 39.4923 36.3174 39.8181L37.5006 40.1802C38.3969 40.4546 39.5087 41.4531 39.881 42.3165L40.2317 43.1298C40.6081 44.0051 40.5367 45.0934 40.2213 45.4813C39.734 46.0822 38.6326 47.2158 37.8167 47.956C37.5658 48.1851 36.9641 48.7686 36.8158 49.2546C36.7451 49.4865 36.6848 50.1111 36.5392 51.8728C36.4865 52.512 36.42 53.3079 36.4061 53.4039C36.2945 53.7793 36.2266 54.0056 38.4094 56.2964C39.0554 56.974 39.5226 58.3847 39.4103 59.315L39.0901 61.984C38.7421 62.1942 38.3907 62.3976 38.0316 62.5898ZM48.906 49.3124C47.4628 54.0703 44.5584 58.1201 40.606 60.9757L40.7848 59.4828C40.9464 58.1368 40.3419 56.3146 39.4089 55.3341C38.774 54.6678 38.0358 53.8398 37.7848 53.4945C37.8126 53.2529 37.85 52.8246 37.9186 51.989C37.9886 51.1437 38.0947 49.8653 38.1335 49.6814C38.1862 49.5631 38.478 49.2337 38.7456 48.99C39.6183 48.1969 40.7613 47.018 41.295 46.3628C41.9785 45.5203 42.0679 43.893 41.503 42.5776L41.1522 41.7643C40.6178 40.5228 39.1913 39.2416 37.9027 38.8482L36.7201 38.4861C35.5951 38.1414 33.7284 37.7341 32.5584 37.5774L31.2732 37.4054C30.3063 37.2759 28.9463 36.6123 28.3633 35.9863C28.1325 35.7391 28.0951 35.4446 28.1048 35.2419C28.1214 34.8736 28.3044 34.5066 28.608 34.2358C29.6609 33.295 29.7663 32.9378 29.7829 32.871C29.9521 32.4873 31.773 29.551 32.1369 29.1673C32.1647 29.1448 32.1846 29.1171 32.2045 29.0894C32.213 29.0776 32.2214 29.0659 32.2305 29.0545C36.7818 28.2015 40.8701 26.4175 42.1788 25.811C48.8422 31.6301 51.488 40.7999 48.906 49.3124ZM27.5142 14.4416L20.8473 12.5991L25.5269 8.83346C26.0482 9.18789 26.7385 9.40723 27.5142 9.40723C29.1667 9.40723 30.4615 8.43865 30.4615 7.202C30.4615 5.96534 29.1667 4.99676 27.5142 4.99676C25.8617 4.99676 24.5669 5.96534 24.5669 7.202C24.5669 7.3907 24.6064 7.57035 24.6639 7.74443L19.1962 12.1437L3.94381 7.92965L27.5142 1.4184L51.086 7.92965L27.5142 14.4416ZM25.9532 7.202C25.9532 6.82598 26.6346 6.38939 27.5142 6.38939C28.3938 6.38939 29.0752 6.82598 29.0752 7.202C29.0752 7.57801 28.3938 8.0146 27.5142 8.0146C26.8633 8.0146 26.322 7.77506 26.0842 7.49793L26.0821 7.49445C26.0806 7.49256 26.0787 7.49129 26.0767 7.48997C26.075 7.48885 26.0733 7.48769 26.0717 7.48609C25.9962 7.39279 25.9532 7.296 25.9532 7.202Z" fill="#1E1E1E"/>
</g>
<defs>
<clipPath id="clip0_1_1701">
<rect width="55" height="67" fill="white"/>
</clipPath>
</defs>
</svg>
