<svg width="67" height="65" viewBox="0 0 67 65" fill="none" xmlns="http://www.w3.org/2000/svg">
<g clip-path="url(#clip0_1_1720)">
<path d="M46.5127 33.5149C46.5935 33.9207 46.9166 34.2453 47.3206 34.2453H47.4013C47.8053 34.1641 48.2092 33.8395 48.1284 33.3526C47.9668 32.0542 47.7245 30.837 47.2398 29.6198C47.0782 29.214 46.5935 28.9706 46.1896 29.1329C45.7857 29.2952 45.5433 29.7821 45.7049 30.1878C46.1896 31.2428 46.4319 32.3788 46.5127 33.5149Z" fill="white"/>
<path d="M48.0475 37.0866C48.1283 36.6809 47.8052 36.194 47.4013 36.194C46.9974 36.1128 46.5127 36.4374 46.5127 36.8432C45.5433 43.3351 39.8885 48.2041 33.3451 48.2041C25.9939 48.2041 20.016 42.1991 20.016 34.8144C20.016 27.4298 25.9939 21.4248 33.3451 21.4248C37.5458 21.4248 41.4234 23.3724 44.0084 26.7806C44.2507 27.1052 44.8162 27.1864 45.1394 26.9429C45.4625 26.6995 45.5433 26.1314 45.3009 25.8068C42.4735 21.9928 38.1113 19.8018 33.3451 19.8018C25.1053 19.8018 18.4004 26.5372 18.4004 34.8144C18.4004 43.0917 25.1053 49.8271 33.3451 49.8271C40.6155 49.8271 46.9973 44.3901 48.0475 37.0866Z" fill="white"/>
<path d="M49.1798 44.3066C50.8762 41.4664 51.7648 38.2204 51.7648 34.8933C51.7648 24.6684 43.525 16.3912 33.3465 16.3912C23.1679 16.31 14.8473 24.6684 14.8473 34.8933C14.8473 38.2204 15.7359 41.4664 17.4323 44.3066L6.76906 55.0184C6.52671 55.2618 6.44593 55.6676 6.60749 55.9922C6.76906 56.3168 7.09219 56.4791 7.4961 56.3979L16.6245 54.8561L15.0896 64.026C15.0089 64.3506 15.1704 64.7563 15.4936 64.9186C15.5743 64.9998 15.7359 64.9998 15.8975 64.9998C16.1398 64.9998 16.3014 64.9186 16.4629 64.7563L28.4187 52.7462C30.0344 53.2331 31.7308 53.3954 33.3465 53.3954C35.0429 53.3954 36.6585 53.1519 38.2742 52.7462L50.23 64.7563C50.3915 64.9186 50.5531 64.9998 50.7954 64.9998C50.957 64.9998 51.0378 64.9998 51.1994 64.9186C51.5225 64.7563 51.6841 64.4317 51.6033 64.026L50.0684 54.8561L59.1968 56.3979C59.5199 56.4791 59.9239 56.3168 60.0854 55.9922C60.247 55.6676 60.1662 55.2618 59.9239 55.0184L49.1798 44.3066ZM17.0284 61.7538L18.3209 53.9634C18.4017 53.72 18.3209 53.4765 18.0786 53.2331C17.917 53.0708 17.7555 52.9896 17.5131 52.9896C17.4323 52.9896 17.4323 52.9896 17.3515 52.9896L9.75801 54.3692L18.4017 45.6862C20.5021 48.6076 23.3294 50.7986 26.6415 52.097L17.0284 61.7538ZM28.3379 51.0421C24.5412 49.906 21.3099 47.3903 19.1288 43.982C17.4323 41.223 16.4629 38.1393 16.4629 34.8933C16.4629 25.5611 23.9757 18.0142 33.2657 18.0142C42.5556 18.0142 50.1492 25.5611 50.1492 34.8933C50.1492 38.1393 49.2606 41.3041 47.4834 44.0632C45.383 47.3903 42.071 49.906 38.2742 51.1232C35.0429 52.0159 31.5692 52.0159 28.3379 51.0421ZM49.1798 53.0708C48.9375 52.9896 48.6951 53.0708 48.4528 53.3142C48.2104 53.5577 48.2104 53.8011 48.2104 54.0446L49.5029 61.8349L39.9706 52.097C43.2827 50.7986 46.1909 48.5264 48.2104 45.6862L56.8541 54.3692L49.1798 53.0708Z" fill="white"/>
<path d="M41.5868 32.9492C41.506 32.6246 41.2636 32.4623 40.9405 32.3812L36.1744 31.6508L34.074 27.3499C33.8317 26.7818 32.8623 26.7818 32.6199 27.3499L30.4388 31.6508L25.6726 32.3812C25.3495 32.4623 25.1072 32.6246 25.0264 32.9492C24.9456 33.2738 25.0264 33.5984 25.2687 33.7607L28.7424 37.169L27.9346 41.9568C27.8538 42.2814 28.0153 42.606 28.2577 42.7683C28.4192 42.8494 28.5808 42.9306 28.7424 42.9306C28.9039 42.9306 28.9847 42.9306 29.1463 42.8494L33.4278 40.5773L37.7092 42.8494C37.9516 43.0117 38.2747 42.9306 38.5978 42.7683C38.8402 42.606 39.0017 42.2814 38.921 41.9568L38.1131 37.169L41.5868 33.7607C41.5868 33.5172 41.6676 33.1926 41.5868 32.9492ZM36.4975 36.2763C36.3359 36.4386 36.2551 36.7632 36.2551 37.0067L36.9014 40.5773L33.7509 38.8731C33.6701 38.792 33.5085 38.792 33.347 38.792C33.1854 38.792 33.1046 38.792 32.9431 38.8731L29.7925 40.5773L30.4388 37.0067C30.5196 36.7632 30.358 36.4386 30.1965 36.2763L27.6114 33.7607L31.1658 33.2738C31.4082 33.2738 31.6505 33.0303 31.8121 32.8681L33.4278 29.6221L35.0434 32.8681C35.1242 33.1115 35.3665 33.2738 35.6897 33.2738L39.2441 33.7607L36.4975 36.2763Z" fill="white"/>
<path d="M33.3469 7.70921C33.8316 7.70921 34.1547 7.38461 34.1547 6.89771V0.811496C34.1547 0.324598 33.8316 0 33.3469 0C32.8622 0 32.5391 0.324598 32.5391 0.811496V6.89771C32.5391 7.38461 32.8622 7.70921 33.3469 7.70921Z" fill="white"/>
<path d="M49.504 13.0651C49.7463 13.0651 49.9887 12.9839 50.1502 12.7405L53.7854 7.79034C54.0278 7.46574 53.947 6.8977 53.6239 6.65425C53.3007 6.4108 52.7353 6.49195 52.4929 6.81655L48.8577 11.7667C48.6154 12.0913 48.6961 12.6593 49.0193 12.9028C49.1808 12.9839 49.3424 13.0651 49.504 13.0651Z" fill="white"/>
<path d="M65.9819 24.0202C65.8203 23.6144 65.4164 23.371 64.9317 23.5333L59.1154 25.3997C58.7115 25.562 58.4691 25.9678 58.6307 26.4546C58.7115 26.7792 59.0346 27.0227 59.4385 27.0227C59.5193 27.0227 59.6001 27.0227 59.6809 27.0227L65.4972 25.1563C65.9011 24.8317 66.1435 24.4259 65.9819 24.0202Z" fill="white"/>
<path d="M7.33421 26.3725C7.65734 26.3725 7.98047 26.1291 8.06126 25.8045C8.22282 25.3987 7.98047 24.9118 7.57656 24.7495L1.84101 22.7208C1.4371 22.5585 0.952406 22.802 0.790842 23.2077C0.629277 23.6134 0.871623 24.1003 1.27554 24.2626L7.01108 26.2914C7.17265 26.2914 7.25343 26.3725 7.33421 26.3725Z" fill="white"/>
<path d="M16.9465 12.3345C17.108 12.5779 17.3504 12.6591 17.5927 12.6591C17.7543 12.6591 17.9159 12.5779 18.0774 12.4968C18.4813 12.2533 18.5621 11.7664 18.239 11.3607L14.7653 6.32939C14.523 5.92364 14.0383 5.84249 13.6344 6.16709C13.2305 6.41054 13.1497 6.89744 13.4728 7.30319L16.9465 12.3345Z" fill="white"/>
</g>
<defs>
<clipPath id="clip0_1_1720">
<rect width="67" height="65" fill="white"/>
</clipPath>
</defs>
</svg>
