<svg width="61" height="66" viewBox="0 0 61 66" fill="none" xmlns="http://www.w3.org/2000/svg">
<g clip-path="url(#clip0_1_1736)">
<path d="M36.8194 14.9178C36.7567 14.6727 36.5687 14.5501 36.318 14.4888L32.6201 13.9372L30.9905 10.6889C30.8025 10.2599 30.0504 10.2599 29.8623 10.6889L28.1701 13.9372L24.4722 14.4888C24.2215 14.5501 24.0334 14.6727 23.9708 14.9178C23.9081 15.163 23.9708 15.4082 24.1588 15.5307L26.8539 18.1049L26.2271 21.7209C26.1644 21.9661 26.2898 22.2112 26.4778 22.3338C26.6032 22.3951 26.7285 22.4564 26.8539 22.4564C26.9792 22.4564 27.0419 22.4564 27.1673 22.3951L30.4891 20.679L33.8109 22.3951C33.999 22.5176 34.2497 22.4564 34.5004 22.3338C34.6884 22.2112 34.8138 21.9661 34.7511 21.7209L34.1243 18.1049L36.8194 15.5307C36.8194 15.3469 36.8821 15.1017 36.8194 14.9178ZM32.8708 17.4307C32.7454 17.5533 32.6828 17.7984 32.6828 17.9823L33.1842 20.679L30.7398 19.3919C30.6771 19.3306 30.5518 19.3306 30.4264 19.3306C30.3011 19.3306 30.2384 19.3306 30.113 19.3919L27.6687 20.679L28.1701 17.9823C28.2328 17.7984 28.1074 17.5533 27.9821 17.4307L25.9764 15.5307L28.7342 15.163C28.9222 15.163 29.1102 14.9791 29.2356 14.8566L30.4891 12.405L31.7426 14.8566C31.8053 15.0404 31.9933 15.163 32.244 15.163L35.0018 15.5307L32.8708 17.4307Z" fill="#1E1E1E"/>
<path d="M50.5619 35.7054H10.2142C8.86897 35.7026 7.53961 35.4131 6.314 34.856C5.08838 34.2989 3.99443 33.4868 3.10444 32.4734C2.21445 31.46 1.54868 30.2685 1.15115 28.9775C0.753607 27.6864 0.633348 26.3254 0.798316 24.9842C0.963283 23.643 1.40972 22.3523 2.10813 21.1973C2.80653 20.0423 3.74099 19.0493 4.84976 18.2841C5.95853 17.5188 7.21635 16.9986 8.5401 16.7579C9.86385 16.5172 11.2234 16.5615 12.5288 16.8877C12.6155 15.2659 13.1123 13.693 13.9723 12.3176C14.8322 10.9422 16.0269 9.80966 17.4436 9.02692C18.8603 8.24418 20.4522 7.83707 22.069 7.84403C23.6858 7.85099 25.2742 8.2718 26.6841 9.06671C27.5663 6.13692 29.4674 3.62324 32.0407 1.98409C34.614 0.344946 37.6881 -0.310477 40.7023 0.137353C43.7166 0.585182 46.4702 2.10643 48.461 4.42367C50.4518 6.74091 51.5472 9.69977 51.5474 12.7607C51.5487 14.067 51.3488 15.3657 50.9547 16.6107C53.4395 16.7145 55.7849 17.7923 57.4879 19.613C59.1909 21.4336 60.1159 23.8521 60.0645 26.3499C60.0131 28.8476 58.9894 31.2257 57.213 32.9741C55.4366 34.7225 53.0488 35.702 50.5619 35.7026V35.7054ZM10.2142 17.9802C8.05587 17.9802 5.98591 18.8415 4.45972 20.3746C2.93353 21.9077 2.07612 23.9871 2.07612 26.1553C2.07612 28.3235 2.93353 30.4028 4.45972 31.9359C5.98591 33.4691 8.05587 34.3304 10.2142 34.3304H50.5619C51.6306 34.3304 52.6888 34.1189 53.6762 33.7081C54.6635 33.2972 55.5607 32.6951 56.3164 31.9359C57.0721 31.1768 57.6715 30.2756 58.0805 29.2838C58.4895 28.2919 58.7 27.2288 58.7 26.1553C58.7 25.0817 58.4895 24.0187 58.0805 23.0268C57.6715 22.035 57.0721 21.1337 56.3164 20.3746C55.5607 19.6155 54.6635 19.0133 53.6762 18.6025C52.6888 18.1916 51.6306 17.9802 50.5619 17.9802C50.3821 17.9802 50.2023 17.9866 50.0226 17.9994C49.9063 18.0082 49.7897 17.9869 49.6839 17.9376C49.578 17.8884 49.4865 17.8128 49.4179 17.718C49.3494 17.6232 49.3061 17.5124 49.2921 17.3961C49.2781 17.2798 49.294 17.1619 49.3382 17.0534C49.8941 15.6913 50.1789 14.2329 50.1766 12.7607C50.1767 9.95538 49.146 7.24878 47.2819 5.15994C45.4178 3.0711 42.8517 1.74708 40.0757 1.4418C37.2997 1.13653 34.5093 1.87149 32.2395 3.50574C29.9697 5.13998 28.3804 7.55846 27.7764 10.2973C27.752 10.4081 27.7008 10.5111 27.6272 10.5972C27.5535 10.6832 27.4599 10.7496 27.3545 10.7905C27.2491 10.8313 27.1353 10.8453 27.0232 10.8313C26.9112 10.8172 26.8043 10.7755 26.7122 10.7098C25.4927 9.84768 24.061 9.3384 22.5732 9.23753C21.0854 9.13666 19.5986 9.44806 18.2748 10.1378C16.9511 10.8275 15.8413 11.8691 15.0664 13.149C14.2915 14.4288 13.8813 15.8978 13.8805 17.3958C13.8781 17.5105 13.8818 17.6252 13.8915 17.7396C13.9031 17.8551 13.8855 17.9718 13.8401 18.0786C13.7947 18.1855 13.7232 18.279 13.6321 18.3506C13.541 18.4221 13.4333 18.4693 13.3191 18.4877C13.205 18.5061 13.088 18.4952 12.9792 18.4559C12.0917 18.1385 11.1563 17.9776 10.2142 17.9802Z" fill="#1E1E1E"/>
<path d="M55.97 26.8463C55.7885 26.8463 55.6144 26.7739 55.4861 26.645C55.3577 26.516 55.2856 26.3411 55.2856 26.1588C55.2856 24.9007 54.7881 23.6941 53.9025 22.8045C53.0169 21.9148 51.8157 21.415 50.5633 21.415C50.3818 21.415 50.2077 21.3426 50.0794 21.2137C49.951 21.0847 49.8789 20.9099 49.8789 20.7275C49.8789 20.5452 49.951 20.3703 50.0794 20.2414C50.2077 20.1125 50.3818 20.04 50.5633 20.04C52.1784 20.0411 53.7271 20.6861 54.8691 21.8334C56.0112 22.9806 56.6533 24.5363 56.6544 26.1588C56.6544 26.3411 56.5823 26.516 56.4539 26.645C56.3256 26.7739 56.1515 26.8463 55.97 26.8463Z" fill="#1E1E1E"/>
<path d="M36.2795 5.4694C36.2581 5.42456 36.2417 5.37751 36.2306 5.32909C36.2102 5.24112 36.2074 5.15 36.2221 5.06092C36.2369 4.97184 36.269 4.88656 36.3166 4.80994C36.3641 4.73331 36.4263 4.66686 36.4994 4.61437C36.5726 4.56187 36.6553 4.52437 36.7429 4.504C38.8014 4.03856 40.9561 4.28831 42.855 5.2124C44.7539 6.1365 46.2846 7.68031 47.197 9.5915C47.2749 9.75621 47.2844 9.94524 47.2235 10.117C47.1626 10.2888 47.0363 10.4292 46.8724 10.5075C46.7084 10.5857 46.5202 10.5953 46.3492 10.5341C46.1782 10.4729 46.0384 10.346 45.9605 10.1813C45.1833 8.55219 43.8788 7.23609 42.2605 6.44814C40.6421 5.66019 38.8056 5.447 37.051 5.8434C36.8992 5.87856 36.7401 5.86066 36.5998 5.79266C36.4595 5.72466 36.3465 5.61063 36.2795 5.4694Z" fill="#1E1E1E"/>
<path d="M4.8172 26.8463C4.63569 26.8463 4.46161 26.7739 4.33327 26.6449C4.20492 26.516 4.13281 26.3411 4.13281 26.1588C4.13281 24.5377 4.77323 22.9828 5.91346 21.8356C7.05369 20.6883 8.60052 20.0426 10.2143 20.04C10.3958 20.04 10.5699 20.1124 10.6983 20.2414C10.8266 20.3703 10.8987 20.5452 10.8987 20.7275C10.8987 20.9099 10.8266 21.0847 10.6983 21.2137C10.5699 21.3426 10.3958 21.415 10.2143 21.415C8.96355 21.4176 7.76487 21.9185 6.88134 22.8078C5.9978 23.6972 5.50159 24.9023 5.5016 26.1588C5.5016 26.3411 5.42949 26.516 5.30114 26.6449C5.17279 26.7739 4.99872 26.8463 4.8172 26.8463Z" fill="#1E1E1E"/>
<path d="M22.0555 65.9997C21.874 65.9997 21.6999 65.9273 21.5715 65.7983C21.4432 65.6694 21.3711 65.4945 21.3711 65.3122V26.5762C21.3711 26.3939 21.4432 26.219 21.5715 26.0901C21.6999 25.9612 21.874 25.8887 22.0555 25.8887C22.237 25.8887 22.4111 25.9612 22.5394 26.0901C22.6678 26.219 22.7399 26.3939 22.7399 26.5762V65.3122C22.7399 65.4945 22.6678 65.6694 22.5394 65.7983C22.4111 65.9273 22.237 65.9997 22.0555 65.9997Z" fill="#1E1E1E"/>
<path d="M38.7274 65.9997C38.5458 65.9997 38.3718 65.9273 38.2434 65.7983C38.1151 65.6694 38.043 65.4945 38.043 65.3122V26.5762C38.043 26.3939 38.1151 26.219 38.2434 26.0901C38.3718 25.9612 38.5458 25.8887 38.7274 25.8887C38.9089 25.8887 39.083 25.9612 39.2113 26.0901C39.3396 26.219 39.4118 26.3939 39.4118 26.5762V65.3122C39.4118 65.4945 39.3396 65.6694 39.2113 65.7983C39.083 65.9273 38.9089 65.9997 38.7274 65.9997Z" fill="#1E1E1E"/>
<path d="M38.5644 61.7783H22.1082C21.9267 61.7783 21.7526 61.7058 21.6243 61.5769C21.4959 61.448 21.4238 61.2731 21.4238 61.0908C21.4238 60.9084 21.4959 60.7336 21.6243 60.6046C21.7526 60.4757 21.9267 60.4033 22.1082 60.4033H38.5644C38.7459 60.4033 38.92 60.4757 39.0484 60.6046C39.1767 60.7336 39.2488 60.9084 39.2488 61.0908C39.2488 61.2731 39.1767 61.448 39.0484 61.5769C38.92 61.7058 38.7459 61.7783 38.5644 61.7783Z" fill="#1E1E1E"/>
<path d="M38.5644 55.5293H22.1082C21.9267 55.5293 21.7526 55.4569 21.6243 55.3279C21.4959 55.199 21.4238 55.0241 21.4238 54.8418C21.4238 54.6595 21.4959 54.4846 21.6243 54.3557C21.7526 54.2267 21.9267 54.1543 22.1082 54.1543H38.5644C38.7459 54.1543 38.92 54.2267 39.0484 54.3557C39.1767 54.4846 39.2488 54.6595 39.2488 54.8418C39.2488 55.0241 39.1767 55.199 39.0484 55.3279C38.92 55.4569 38.7459 55.5293 38.5644 55.5293Z" fill="#1E1E1E"/>
<path d="M38.5644 49.2832H22.1082C21.9267 49.2832 21.7526 49.2107 21.6243 49.0818C21.4959 48.9529 21.4238 48.778 21.4238 48.5957C21.4238 48.4133 21.4959 48.2385 21.6243 48.1095C21.7526 47.9806 21.9267 47.9082 22.1082 47.9082H38.5644C38.7459 47.9082 38.92 47.9806 39.0484 48.1095C39.1767 48.2385 39.2488 48.4133 39.2488 48.5957C39.2488 48.778 39.1767 48.9529 39.0484 49.0818C38.92 49.2107 38.7459 49.2832 38.5644 49.2832Z" fill="#1E1E1E"/>
<path d="M38.5644 43.0371H22.1082C21.9267 43.0371 21.7526 42.9647 21.6243 42.8357C21.4959 42.7068 21.4238 42.5319 21.4238 42.3496C21.4238 42.1673 21.4959 41.9924 21.6243 41.8635C21.7526 41.7345 21.9267 41.6621 22.1082 41.6621H38.5644C38.7459 41.6621 38.92 41.7345 39.0484 41.8635C39.1767 41.9924 39.2488 42.1673 39.2488 42.3496C39.2488 42.5319 39.1767 42.7068 39.0484 42.8357C38.92 42.9647 38.7459 43.0371 38.5644 43.0371Z" fill="#1E1E1E"/>
<path d="M38.5644 30.7324H22.1082C21.9267 30.7324 21.7526 30.6599 21.6243 30.531C21.4959 30.4021 21.4238 30.2272 21.4238 30.0449C21.4238 29.8625 21.4959 29.6877 21.6243 29.5587C21.7526 29.4298 21.9267 29.3574 22.1082 29.3574H38.5644C38.7459 29.3574 38.92 29.4298 39.0484 29.5587C39.1767 29.6877 39.2488 29.8625 39.2488 30.0449C39.2488 30.2272 39.1767 30.4021 39.0484 30.531C38.92 30.6599 38.7459 30.7324 38.5644 30.7324Z" fill="#1E1E1E"/>
</g>
<defs>
<clipPath id="clip0_1_1736">
<rect width="61" height="66" fill="white"/>
</clipPath>
</defs>
</svg>
