<svg width="72" height="60" viewBox="0 0 72 60" fill="none" xmlns="http://www.w3.org/2000/svg">
<g clip-path="url(#clip0_1_1712)">
<path d="M63.5006 30.6569H69.3694C69.9217 30.6569 70.3694 31.1046 70.3694 31.6569V58C70.3694 58.5523 69.9217 59 69.3694 59H63.5006M63.5006 30.6569V59M63.5006 30.6569V25.2941C63.5006 24.7418 63.0529 24.2941 62.5006 24.2941H60.0663M63.5006 59H44.0391M60.0663 24.2941V21.2451C60.0663 20.6928 59.6185 20.2451 59.0663 20.2451H53.7699M60.0663 24.2941H44.0391M44.0391 59H29.1568M44.0391 59V47.4314M8.55042 59H2.68164C2.12936 59 1.68164 58.5523 1.68164 58V31.6569C1.68164 31.1046 2.12936 30.6569 2.68164 30.6569H8.55042M8.55042 59V30.6569M8.55042 59H29.1568M8.55042 30.6569V25.2941C8.55042 24.7418 8.99813 24.2941 9.55042 24.2941H12.5572M29.1568 59V47.4314M12.5572 24.2941H29.1568M12.5572 24.2941V21.2451C12.5572 20.6928 13.0049 20.2451 13.5572 20.2451H18.2812M29.1568 24.2941V20.2451M29.1568 24.2941V47.4314M29.1568 20.2451V13.3198C29.1568 12.9535 29.357 12.6165 29.6788 12.4414L36.5979 8.67647M29.1568 20.2451H18.2812M29.1568 47.4314C29.1568 45.3105 30.6274 40.4902 36.5979 40.4902C42.3219 40.4902 44.0391 44.9248 44.0391 47.4314M44.0391 47.4314V24.2941M36.5979 8.67647L43.5171 12.4414C43.8388 12.6165 44.0391 12.9535 44.0391 13.3198V20.2451M36.5979 8.67647V0M44.0391 20.2451V24.2941M44.0391 20.2451H53.7699M18.2812 20.2451V10.4118M53.7699 20.2451V10.4118M15.9916 32.3922V36.4412M23.4328 32.3922V36.4412M15.9916 42.2255V46.2745M23.4328 42.2255V46.2745M15.9916 50.902V54.951M23.4328 50.3235V54.951M48.6183 32.3922V36.4412M56.0595 32.3922V36.4412M48.6183 42.2255V46.2745M56.0595 42.2255V46.2745M48.6183 50.902V54.951M56.0595 50.3235V54.951" stroke="white" stroke-width="1.7"/>
</g>
<defs>
<clipPath id="clip0_1_1712">
<rect width="72" height="60" fill="white"/>
</clipPath>
</defs>
</svg>
