<svg width="73" height="53" viewBox="0 0 73 53" fill="none" xmlns="http://www.w3.org/2000/svg">
<g clip-path="url(#clip0_1_1749)">
<path d="M23.8671 24.752C24.5664 24.752 25.1355 25.3205 25.1355 26.0192C25.1355 26.7188 24.5664 27.2872 23.8671 27.2872C23.1686 27.2872 22.5996 26.7179 22.5996 26.0192C22.5996 25.3205 23.1678 24.752 23.8671 24.752Z" fill="white"/>
<path fill-rule="evenodd" clip-rule="evenodd" d="M66.5599 8.93687L34.1849 0.0308641C34.0357 -0.010288 33.8789 -0.010288 33.7298 0.0308641L1.3556 8.93687C0.983663 9.03975 0.726562 9.37754 0.726562 9.76334C0.726562 10.1491 0.98452 10.4878 1.3556 10.5898L14.82 14.2944V30.3874V30.7811V31.1802L15.8347 31.7814C16.6711 32.1655 18.4314 32.938 20.7359 33.7465L20.5054 34.8284C20.4934 34.8867 20.4874 34.9467 20.4874 35.0067V42.7245C20.4874 43.1977 20.8704 43.5818 21.3444 43.5818H23.6609H24.0756H26.3921C26.866 43.5818 27.2491 43.1977 27.2491 42.7245V35.5803C29.6145 36.0767 31.8281 36.3433 33.8266 36.3433H33.9578H34.0966C35.1936 36.3433 36.3059 36.2679 37.4115 36.1367L39.788 35.7732C45.4151 34.723 50.4697 32.5265 52.0877 31.7797L53.0929 31.1294V30.9073V30.3788V14.2952L66.5591 10.5907C66.931 10.4878 67.1881 10.15 67.1881 9.7642C67.1881 9.3784 66.9318 9.03975 66.5599 8.93687ZM23.0104 16.5483V19.2069L23.0112 21.0596L23.0104 23.1781L21.9031 28.2458L21.095 32.0541C18.9619 31.2953 17.307 30.57 16.5349 30.2151V18.7945L16.534 17.0344V14.7668L23.0104 16.5483ZM51.3798 18.7945V30.2151C49.3521 31.1436 41.2611 34.6287 34.094 34.6287C34.0785 34.6287 34.0637 34.6281 34.049 34.6275C34.0196 34.6264 33.9905 34.6252 33.9569 34.6287H33.9518C31.9112 34.6587 29.5408 34.3492 27.0066 33.7773L25.8316 28.2466L24.7244 23.1781V21.7266L24.7235 19.8576V17.019L33.7289 19.4967C33.8035 19.5173 33.8806 19.5275 33.9569 19.5275C34.0332 19.5275 34.1103 19.5173 34.1849 19.4967L51.3798 14.7659V17.0344V18.7945ZM25.5343 41.8671V35.0968L25.44 34.6501C25.4392 34.6473 25.4384 34.6445 25.4377 34.6418C25.4369 34.6385 25.4362 34.6353 25.4357 34.6321L24.2316 27.3979C24.2049 27.4013 24.1783 27.405 24.1517 27.4087C24.0581 27.4217 23.9648 27.4348 23.8674 27.4348C23.7699 27.4348 23.6766 27.4217 23.5831 27.4087C23.5565 27.405 23.5299 27.4013 23.5032 27.3979L22.1997 35.0968V41.8671H23.66H24.0748H25.5343ZM25.1358 26.0193C25.1358 25.3206 24.5667 24.7521 23.8674 24.7521C23.1681 24.7521 22.5999 25.3206 22.5999 26.0193C22.5999 26.718 23.1689 27.2873 23.8674 27.2873C24.5667 27.2873 25.1358 26.7189 25.1358 26.0193ZM25.7142 15.5126L33.9569 17.7811L63.1002 9.76334L33.9569 1.74639L4.81533 9.76334L23.6728 14.9519L30.4329 9.53529C30.3618 9.32096 30.3129 9.09976 30.3129 8.86742C30.3129 7.3448 31.9138 6.15224 33.9569 6.15224C36 6.15224 37.6009 7.3448 37.6009 8.86742C37.6009 10.3901 36 11.5826 33.9569 11.5826C32.9979 11.5826 32.1443 11.3125 31.4999 10.8762L25.7142 15.5126ZM33.9569 7.86691C32.8694 7.86691 32.0269 8.40446 32.0269 8.86742C32.0269 8.98317 32.0801 9.10234 32.1735 9.21722C32.1754 9.21918 32.1776 9.22061 32.1797 9.22199C32.1821 9.22362 32.1845 9.22519 32.1863 9.22751L32.1889 9.23179C32.4829 9.57301 33.1522 9.86794 33.9569 9.86794C35.0444 9.86794 35.8869 9.33039 35.8869 8.86742C35.8869 8.40446 35.0444 7.86691 33.9569 7.86691Z" fill="white"/>
<path fill-rule="evenodd" clip-rule="evenodd" d="M25.1355 26.0192C25.1355 25.3205 24.5664 24.752 23.8671 24.752C23.1678 24.752 22.5996 25.3205 22.5996 26.0192C22.5996 26.7179 23.1686 27.2872 23.8671 27.2872C24.5664 27.2872 25.1355 26.7188 25.1355 26.0192Z" fill="white"/>
<path fill-rule="evenodd" clip-rule="evenodd" d="M5.14696 39.04C4.69743 39.04 4.39774 39.341 4.39774 39.7926C4.39774 40.2442 4.69743 40.5452 5.14696 40.5452C5.2968 40.5452 5.37172 40.5452 5.52157 40.6205C6.34571 40.771 7.02001 41.5989 7.46954 42.6526H4.6225C3.72344 42.6526 1.10117 42.6526 0.801484 45.4373C0.726562 45.4373 0.726563 45.5125 0.726563 45.5878V45.8136V46.0394C0.726563 46.1146 0.726562 46.1899 0.801484 46.2652C0.876406 47.6952 1.25102 49.0499 1.92531 50.1036C2.74946 51.4583 3.94821 52.2109 5.22188 52.2109H67.6319C70.4789 52.2109 72.7266 49.2757 72.7266 45.6631C72.7266 42.0505 70.3291 39.04 67.5569 39.04H27.2502V40.47H63.0616V40.5452C65.0845 40.5452 66.6579 42.8031 66.6579 45.5878C66.6579 48.3725 65.0096 50.6304 63.0616 50.6304H7.99399C8.96798 49.4262 9.56735 47.6199 9.56735 45.5878V44.9857C9.49243 43.1794 8.89306 41.5989 7.99399 40.47H20.5727V39.04H5.14696ZM8.06891 45.5878V45.1362C8.06891 44.855 8.02707 44.6158 7.97465 44.3558C7.96716 44.3187 7.95946 44.2811 7.95163 44.2429C7.94093 44.1908 7.93 44.1375 7.91907 44.0826H6.27079C6.49555 44.7599 6.49555 45.5878 6.49555 46.1899H7.76923C7.857 46.1899 7.91907 46.2157 7.97049 46.2371C8.00685 46.2523 8.03788 46.2652 8.06891 46.2652V45.5878ZM2.225 45.8889C2.225 47.1683 2.59961 48.3725 3.12407 49.2757C3.72344 50.1788 4.39774 50.6304 5.07204 50.7057C6.19587 50.7057 7.24477 49.4262 7.6943 47.6952H5.59649C5.44665 47.6952 5.14696 47.6199 5.07204 47.4694C4.99711 47.3188 4.92219 47.0931 4.92219 46.8673C5.07204 45.5878 4.84727 44.3083 4.6225 44.1578C3.34883 44.1578 2.29992 44.3083 2.225 45.8889ZM66.3582 50.6304H67.5569C69.5049 50.6304 71.1532 48.3725 71.1532 45.5878C71.1532 42.8031 69.5798 40.5452 67.5569 40.5452H66.3582C67.482 41.7494 68.2312 43.5557 68.2312 45.5878C68.2312 47.6199 67.482 49.4262 66.3582 50.6304Z" fill="white"/>
</g>
<defs>
<clipPath id="clip0_1_1749">
<rect width="73" height="53" fill="white"/>
</clipPath>
</defs>
</svg>
