<svg width="57" height="57" viewBox="0 0 57 57" fill="none" xmlns="http://www.w3.org/2000/svg">
<path d="M52.9616 46.668H50.5369C50.285 46.668 50.0433 46.7681 49.8652 46.9462C49.687 47.1244 49.5869 47.366 49.5869 47.618C49.5869 47.8699 49.687 48.1115 49.8652 48.2897C50.0433 48.4678 50.285 48.5679 50.5369 48.5679H52.9616C53.4854 48.5679 53.9116 48.9941 53.9116 49.5179V50.3416C53.9116 52.9607 51.7808 55.0915 49.1617 55.0915C47.5903 55.0915 46.3117 53.8129 46.3117 52.2415V6.65749C46.3117 2.85708 43.1402 -0.180497 39.3093 0.0167435C35.7781 0.199734 33.012 3.1562 33.012 6.74774V7.48112C33.012 8.00492 32.5858 8.43111 32.062 8.43111H4.03745C3.51365 8.43111 3.08747 8.00492 3.08747 7.48112V6.64989C3.08747 4.03078 5.21828 1.89997 7.83739 1.89997H29.2714C29.5234 1.89997 29.765 1.79988 29.9431 1.62172C30.1213 1.44357 30.2214 1.20194 30.2214 0.949984C30.2214 0.698033 30.1213 0.4564 29.9431 0.278244C29.765 0.100087 29.5234 0 29.2714 0L7.83739 0C4.17069 0 1.1875 2.98307 1.1875 6.64989V7.48112C1.1875 9.05252 2.46606 10.3311 4.03745 10.3311H32.062C33.6334 10.3311 34.9119 9.05252 34.9119 7.48112V6.74774C34.9119 4.16794 36.8867 2.04484 39.4076 1.91422C42.1355 1.77433 44.4118 3.93258 44.4118 6.65749V52.2414C44.4108 53.273 44.7475 54.2767 45.3704 55.099C45.3704 55.099 15.0834 55.0978 15.0652 55.0982C12.3985 55.1433 10.2123 53.0086 10.2123 50.349V14.1539C10.2123 13.902 10.1123 13.6603 9.9341 13.4822C9.75595 13.304 9.51432 13.2039 9.26236 13.2039C9.01041 13.2039 8.76878 13.304 8.59062 13.4822C8.41247 13.6603 8.31238 13.902 8.31238 14.1539V50.3492C8.31238 54.048 11.3218 56.9992 14.9819 56.999C51.8363 56.9979 49.3086 57.0072 49.4423 56.9842C52.9793 56.8366 55.8117 53.9142 55.8117 50.3414V49.5179C55.8116 47.9465 54.533 46.668 52.9616 46.668Z" fill="white"/>
<path d="M39.1869 17.5747C39.4389 17.5747 39.6805 17.4746 39.8587 17.2964C40.0368 17.1183 40.1369 16.8766 40.1369 16.6247C40.1369 16.3727 40.0368 16.1311 39.8587 15.9529C39.6805 15.7748 39.4389 15.6747 39.1869 15.6747H20.1873C19.9353 15.6747 19.6937 15.7748 19.5155 15.9529C19.3374 16.1311 19.2373 16.3727 19.2373 16.6247C19.2373 16.8766 19.3374 17.1183 19.5155 17.2964C19.6937 17.4746 19.9353 17.5747 20.1873 17.5747H39.1869ZM39.1869 28.9745H34.5558C34.3038 28.9745 34.0622 29.0745 33.884 29.2527C33.7059 29.4309 33.6058 29.6725 33.6058 29.9244C33.6058 30.1764 33.7059 30.418 33.884 30.5962C34.0622 30.7743 34.3038 30.8744 34.5558 30.8744H39.1869C39.4389 30.8744 39.6805 30.7743 39.8587 30.5962C40.0368 30.418 40.1369 30.1764 40.1369 29.9244C40.1369 29.6725 40.0368 29.4309 39.8587 29.2527C39.6805 29.0745 39.4389 28.9745 39.1869 28.9745ZM39.1869 42.2742H34.5558C34.3038 42.2742 34.0622 42.3743 33.884 42.5525C33.7059 42.7306 33.6058 42.9723 33.6058 43.2242C33.6058 43.4762 33.7059 43.7178 33.884 43.896C34.0622 44.0741 34.3038 44.1742 34.5558 44.1742H39.1869C39.4389 44.1742 39.6805 44.0741 39.8587 43.896C40.0368 43.7178 40.1369 43.4762 40.1369 43.2242C40.1369 42.9723 40.0368 42.7306 39.8587 42.5525C39.6805 42.3743 39.4389 42.2742 39.1869 42.2742ZM14.4874 23.2746C14.4874 23.5265 14.5874 23.7681 14.7656 23.9463C14.9438 24.1245 15.1854 24.2245 15.4373 24.2245H39.1869C39.4389 24.2245 39.6805 24.1245 39.8587 23.9463C40.0368 23.7681 40.1369 23.5265 40.1369 23.2746C40.1369 23.0226 40.0368 22.781 39.8587 22.6028C39.6805 22.4247 39.4389 22.3246 39.1869 22.3246H15.4373C15.1854 22.3246 14.9438 22.4247 14.7656 22.6028C14.5874 22.781 14.4874 23.0226 14.4874 23.2746ZM39.1869 35.6243H35.9807C35.7288 35.6243 35.4872 35.7244 35.309 35.9026C35.1308 36.0807 35.0308 36.3224 35.0308 36.5743C35.0308 36.8263 35.1308 37.0679 35.309 37.2461C35.4872 37.4242 35.7288 37.5243 35.9807 37.5243H39.1869C39.4389 37.5243 39.6805 37.4242 39.8587 37.2461C40.0368 37.0679 40.1369 36.8263 40.1369 36.5743C40.1369 36.3224 40.0368 36.0807 39.8587 35.9026C39.6805 35.7244 39.4389 35.6243 39.1869 35.6243ZM15.3477 40.2431C15.4594 40.4676 15.6555 40.6389 15.8931 40.7195C16.1306 40.8 16.3904 40.7834 16.6158 40.6731C16.8411 40.5628 17.0136 40.3679 17.0958 40.1309C17.1779 39.8938 17.163 39.6339 17.0542 39.4079C14.9336 35.0744 18.0873 29.9244 22.9778 29.9244C26.6119 29.9244 29.5683 32.8809 29.5683 36.515C29.5683 41.4969 24.2271 44.6694 19.8614 42.3228C19.4016 41.9743 18.7403 42.1114 18.4552 42.6236C18.335 42.8369 18.3895 42.6181 17.7913 47.3437C17.5297 49.4102 19.5015 51.0484 21.483 50.4173L22.9818 49.9403L24.4805 50.4173C26.336 51.0083 28.1614 49.6155 28.1949 47.7611C28.1994 47.5092 28.1037 47.2658 27.9288 47.0845C27.7539 46.9031 27.5142 46.7986 27.2623 46.794C26.7421 46.7838 26.3048 47.1987 26.2952 47.7267C26.2841 48.3332 25.6811 48.8054 25.0566 48.6067L23.2698 48.038C23.0824 47.9784 22.881 47.9784 22.6936 48.038L20.9068 48.6067C20.2441 48.8168 19.5888 48.2727 19.6762 47.5823L20.0673 44.4919C25.6215 46.5138 31.4683 42.3766 31.4683 36.515C31.4683 31.8333 27.6595 28.0245 22.9778 28.0245C16.6699 28.0245 12.6155 34.6605 15.3477 40.2431Z" fill="white"/>
</svg>
