<svg width="80" height="45" viewBox="0 0 80 45" fill="none" xmlns="http://www.w3.org/2000/svg">
<g clip-path="url(#clip0_1_1714)">
<path fill-rule="evenodd" clip-rule="evenodd" d="M68.3837 2.12413C68.2211 1.81752 67.8397 1.69754 67.5283 1.85417L60.041 5.62509C57.5695 5.83751 55.092 5.69698 52.6761 5.20304C50.8733 4.83474 49.1039 4.26868 47.4162 3.52033C46.5797 3.00715 44.8932 2.21365 42.7317 2.44713C41.366 2.59571 40.3412 3.04426 39.7565 3.36617C38.7243 2.48934 36.1434 1.20431 32.3414 2.89026L32.1972 2.95427C30.319 3.78797 28.3767 4.65012 25.1085 4.9759C23.9031 5.096 21.1358 4.55043 19.0475 3.78302L11.8966 0.0721934C11.7401 -0.00898074 11.5561 -0.0224321 11.3892 0.0355492C11.2221 0.0933773 11.0868 0.217381 11.0153 0.377719L10.7275 1L11.9091 1.5086L17.9818 4.65992C16.7977 7.46266 10.7614 21.2121 9.43228 23.6981L9.43167 23.6996L9.43041 23.7015L8.46053 25.5426L2.31189 23.0708L1.11419 22.623L0.876577 23.1568C0.806832 23.3134 0.804179 23.4916 0.869088 23.6502C0.933996 23.809 1.061 23.9348 1.22109 23.9993L8.5181 26.9326C8.59659 26.9641 8.67803 26.9791 8.75823 26.9791C8.98978 26.9791 9.21165 26.8536 9.32493 26.6388L10.2919 24.8033C10.7096 24.9838 11.2929 25.2428 11.8326 25.4825L11.8353 25.4837L11.8647 25.4967C12.4497 25.7564 13.0125 26.0063 13.4233 26.1831C13.3837 26.3266 13.3456 26.4706 13.3098 26.6139C13.1505 27.2494 13.0238 27.9011 12.9334 28.5505C12.8343 29.2604 12.9186 29.9376 13.1768 30.5092C13.6009 31.4477 14.3965 32.1339 15.3598 32.3921C16.0918 32.5885 16.7533 32.4933 17.2874 32.3043C17.3144 33.42 17.8355 34.6528 18.7396 35.6724C19.7353 36.7957 20.9681 37.3973 22.1178 37.3224C22.4014 37.304 22.6823 37.2444 22.9583 37.1439C23.4307 39.606 24.7306 41.2057 26.5365 41.4865L26.603 41.4973C26.9554 41.5542 27.6843 41.6717 28.4605 41.4846C28.8361 42.1699 29.3205 42.7747 29.906 43.2884C29.9783 43.3518 31.7086 44.8386 34.2278 44.4298C35.2292 44.2665 35.8784 43.867 36.2445 43.5639C36.5239 43.6853 36.8054 43.8122 37.0823 43.9371L37.1106 43.9498C38.1652 44.4254 39.0761 44.8361 39.7419 44.9264C40.1001 44.9749 40.4289 45 40.7337 45C41.776 45 42.5368 44.7081 43.2268 44.0729C43.5301 43.7937 43.7585 43.4328 43.9038 43.0085C44.5555 43.1783 45.3761 43.2639 46.2848 43.0673C46.8562 42.9436 48.0453 42.6857 48.8042 41.5947C49.0939 41.1778 49.2497 40.7455 49.328 40.3519C50.1584 40.522 51.4556 40.607 52.968 39.9109L53.0732 39.8633C53.6525 39.6048 54.8578 39.0664 55.2852 37.5551C55.3346 37.38 55.3623 37.2032 55.3751 37.0342C56.8792 37.3827 58.4123 36.9753 59.162 36.2571C60.8899 34.6015 60.5476 32.8142 60.4351 32.2269C60.4273 32.1867 60.4206 32.154 60.4173 32.1296C60.4012 32.0098 60.3819 31.8949 60.3585 31.7833C62.2622 30.7903 64.3252 29.4001 66.1623 28.1621C67.7372 27.1009 69.2348 26.0926 70.3886 25.4948L71.3156 27.1661C71.4319 27.3756 71.6505 27.4945 71.8761 27.4945C71.9776 27.4945 72.0806 27.4703 72.1764 27.4198L79.1264 23.7451C79.4365 23.5812 79.5547 23.2001 79.3914 22.8918L79.1264 22.392L77.9645 22.9238L72.1316 26.0078L71.322 24.5484C71.3019 24.5121 71.2783 24.479 71.2526 24.4483C71.2406 24.4154 71.228 24.3826 71.2104 24.3517L61.0995 6.51277L67.5453 3.26645L68.6894 2.70087L68.3837 2.12413ZM14.3435 29.9917C14.6099 30.5816 15.1021 31.0109 15.6934 31.1694C16.7137 31.4432 17.5718 30.7407 17.7181 30.6118C17.8257 30.4761 18.148 30.0809 18.6283 29.5793C17.6869 28.0213 15.6531 27.0534 14.6269 26.646C14.6164 26.6852 14.605 26.7242 14.5936 26.7632C14.5784 26.8152 14.5633 26.8672 14.5502 26.9194C14.4018 27.5115 14.2838 28.1185 14.1996 28.7238C14.1333 29.1983 14.1831 29.6368 14.3435 29.9917ZM19.6998 34.8363C20.4209 35.6498 21.297 36.1062 22.0343 36.0586C22.3664 36.037 22.7045 35.9071 23.0407 35.6784L26.4015 31.9398C26.7192 31.3881 27.3767 29.8755 26.9806 28.8076C26.7791 28.2646 26.3271 27.8801 25.5988 27.6322C23.6899 26.9827 21.3887 28.645 19.9008 30.0978C19.8762 30.1271 19.8487 30.1537 19.8187 30.1785C19.3693 30.6238 19.0002 31.0437 18.7453 31.3663C18.6822 31.5061 18.6328 31.6507 18.6035 31.7983C18.4258 32.6923 18.8561 33.8848 19.6998 34.8363ZM26.7345 40.2353L26.8081 40.247C27.1365 40.3 27.7936 40.4017 28.3816 40.1811L32.566 34.6383C32.5373 33.7248 32.2398 31.7958 31.0713 31.2487C29.8471 30.6757 28.0053 32.1284 27.3878 32.7469L24.1304 36.3705C24.4171 38.5857 25.3786 40.0243 26.7345 40.2353ZM30.7533 42.3403C31.1202 42.6622 32.4219 43.4411 34.0203 43.1798C34.6081 43.0839 35.0064 42.8844 35.2577 42.7142C34.9193 42.0752 34.6879 41.1384 34.7692 40.4477C34.8004 40.1821 34.9029 39.8831 35.0218 39.5367C35.2947 38.7414 35.6343 37.7512 35.2744 36.8362C34.9038 35.8932 33.9852 35.6053 33.4988 35.5175L29.5336 40.7698C29.8456 41.369 30.2507 41.8992 30.7533 42.3403ZM55.0516 35.5927C56.3077 36.1516 57.7613 35.837 58.2736 35.3464C59.5055 34.1661 59.2769 32.9727 59.1792 32.4631C59.1661 32.3943 59.1559 32.3383 59.1503 32.2969C59.1227 32.0913 59.0818 31.9049 59.0151 31.7188C59.003 31.6926 58.9931 31.6661 58.9849 31.6393C58.6816 30.8781 57.918 30.0738 55.8388 27.932L55.7505 27.841C54.7502 26.8101 52.2758 24.2583 50.9079 22.831C49.4745 21.3353 48.8365 20.609 48.3708 20.0788C47.9659 19.6178 47.7215 19.3396 47.1993 18.8376C45.377 17.0859 43.2152 15.5627 40.7737 14.3108C40.4209 14.1296 40.0001 14.1327 39.6483 14.3182L38.0774 15.1481C37.7626 15.3141 37.5228 15.5852 37.4021 15.9109C36.555 18.1947 34.4241 21.0642 31.2065 21.6349C30.3055 21.7946 29.1762 21.7765 28.2589 21.5876C27.5334 21.4384 26.9011 20.9864 26.5243 20.3476C26.1411 19.6975 26.0534 18.9138 26.2837 18.197L26.4764 17.5983C26.9954 15.9869 27.4435 14.5951 27.6783 13.6374C27.9082 12.7008 28.5178 11.575 29.3951 10.4673C30.7661 8.73621 35.3331 6.01494 38.0617 4.38913C38.1127 4.35874 38.1629 4.32883 38.2122 4.29942C38.3396 4.22348 38.4615 4.15085 38.5771 4.08175C37.7018 3.50951 35.7968 2.74523 32.8635 4.04649L32.7196 4.1102C30.7487 4.98518 28.7105 5.88985 25.2365 6.23604C23.7959 6.38076 21.1466 5.82816 19.1482 5.16175C18.7524 6.13368 17.802 8.33219 15.5283 13.4616C14.1902 16.4804 11.9369 21.5248 10.8762 23.674C11.2823 23.85 11.8116 24.085 12.3581 24.3277C13.199 24.7011 14.1482 25.1227 14.406 25.2181C14.7293 25.319 17.9898 26.383 19.5621 28.6755C21.1889 27.2195 23.6438 25.6278 26.0141 26.4342C27.1157 26.8093 27.8451 27.4625 28.182 28.3755C28.4404 29.0756 28.4182 29.8278 28.2848 30.5027C29.2606 29.9598 30.4906 29.5759 31.6174 30.1036C33.3639 30.9213 33.7438 33.2166 33.8251 34.2918C34.5957 34.4515 35.8976 34.932 36.4656 36.3763C36.9944 37.7218 36.5356 39.0593 36.232 39.9443C36.1446 40.1991 36.0543 40.4626 36.0387 40.5943C35.9609 41.2569 36.3213 42.0473 36.4761 42.2843C36.8621 42.4475 37.2552 42.6233 37.64 42.7967C38.5225 43.1947 39.4351 43.6063 39.9152 43.6715C41.2783 43.8564 41.8426 43.6186 42.3568 43.1452C42.5417 42.9748 42.6708 42.7346 42.7432 42.4303L37.8999 38.254C37.6338 38.0246 37.6057 37.6244 37.8374 37.3605C38.0692 37.0969 38.4729 37.0689 38.7391 37.2985L43.7663 41.6333C44.3034 41.841 45.1015 42.0275 46.0111 41.83C46.5165 41.7205 47.2792 41.5551 47.7516 40.876C48.0033 40.514 48.0909 40.1242 48.1128 39.806L41.3874 33.2408C41.1358 32.9953 41.1327 32.5944 41.3805 32.3453C41.6284 32.096 42.0332 32.0931 42.2842 32.3385L49.094 38.986C49.6848 39.1611 50.9042 39.4638 52.4295 38.7621L52.5481 38.7086C53.0418 38.4881 53.7881 38.1548 54.0544 37.2133C54.1308 36.9431 54.1074 36.6156 54.0765 36.4129C51.3388 33.4505 45.177 27.3657 45.1141 27.3037C44.8642 27.0569 44.8634 26.6558 45.1124 26.4081C45.3613 26.1598 45.766 26.1595 46.0161 26.4063C46.0795 26.4687 52.3085 32.62 55.0516 35.5927ZM59.8887 30.5964C61.6947 29.6409 63.6756 28.306 65.4435 27.1147C67.0315 26.0446 68.545 25.0247 69.765 24.3879L59.86 6.91234C57.3616 7.09989 54.8602 6.94249 52.418 6.44369C50.5099 6.05374 48.6376 5.45305 46.8531 4.65816C46.8261 4.6461 46.8 4.63234 46.775 4.61688C46.0933 4.19245 44.6802 3.50966 42.871 3.70633C41.2677 3.88059 40.2296 4.5473 40.0279 4.68646C40.0216 4.69094 40.0154 4.69512 40.009 4.69929L39.9918 4.71011C39.6801 4.90265 39.2473 5.16059 38.7349 5.46604L38.7203 5.4747L38.719 5.47549C36.2395 6.9529 31.6263 9.70177 30.4006 11.2494C29.6335 12.2177 29.1079 13.172 28.9203 13.9366C28.6753 14.9365 28.2214 16.346 27.6959 17.9778L27.6941 17.9833L27.5017 18.5814C27.3809 18.9569 27.427 19.3677 27.6279 19.7084C27.8251 20.043 28.1416 20.2699 28.5187 20.3474C29.2751 20.5033 30.2416 20.519 30.9813 20.3881C33.4942 19.9423 35.4142 17.5988 36.2022 15.474C36.4316 14.8557 36.884 14.343 37.4762 14.0302L39.0469 13.2005C39.7696 12.8186 40.6345 12.8132 41.3613 13.1858C43.9136 14.4948 46.1773 16.0905 48.0893 17.9284C48.6502 18.4677 48.9226 18.7777 49.3349 19.2471L49.3357 19.2481C49.7937 19.7695 50.4212 20.4839 51.8348 21.9587C53.2003 23.3833 55.6723 25.933 56.6718 26.963L56.6738 26.9651L56.6999 26.9922C56.7097 27.0025 56.7197 27.0132 56.7297 27.0243L56.7305 27.0235L56.7598 27.0538C58.4618 28.8069 59.3853 29.7582 59.8887 30.5964Z" fill="white"/>
</g>
<defs>
<clipPath id="clip0_1_1714">
<rect width="80" height="45" fill="white"/>
</clipPath>
</defs>
</svg>
