<svg width="59" height="57" viewBox="0 0 59 57" fill="none" xmlns="http://www.w3.org/2000/svg">
<g clip-path="url(#clip0_1_1716)">
<path d="M9.41575 28L6.05173 29.931M6.5323 16.8966H2.20714M9.41575 5.79309L6.05173 3.3793M49.784 5.31034L53.6286 3.3793M52.6674 16.4138H57.4732M49.784 28L53.6286 29.931M12.2992 49.3333V42.0345C12.2992 41.4822 11.8515 41.0345 11.2992 41.0345H9.89632H14.7021M29.5999 49.3333V45.3793M29.5999 45.3793V41.9291C29.5999 41.4197 29.9835 40.9859 30.4927 40.9978C31.9857 41.0328 33.925 41.5479 33.925 43.4483C33.925 45.7655 31.0416 45.7011 29.5999 45.3793ZM39.2114 41.0345H40.1337C40.6859 41.0345 41.1337 41.4822 41.1337 42.0345V49.3333M1.72656 37.6552V34.7931C1.72656 34.2408 2.17428 33.7931 2.72656 33.7931H56.4732C57.0255 33.7931 57.4732 34.2408 57.4732 34.7931V37.6552V52.1379V55C57.4732 55.5523 57.0255 56 56.4732 56H2.72656C2.17428 56 1.72656 55.5523 1.72656 55V52.1379V37.6552ZM12.5858 13.8747L19.6535 21.3691C19.8649 21.5932 19.9611 21.9021 19.9145 22.2066L18.3592 32.3617C18.2363 33.1644 19.0709 33.7712 19.7966 33.4067L29.151 28.7082C29.4334 28.5663 29.7663 28.5663 30.0487 28.7082L39.4032 33.4067C40.1289 33.7712 40.9634 33.1644 40.8405 32.3617L39.2826 22.1893C39.2375 21.8947 39.3261 21.5953 39.5243 21.3728L46.2214 13.8538C46.7351 13.277 46.4288 12.3604 45.6716 12.2083L35.8136 10.2277C35.5298 10.1707 35.2846 9.9934 35.1414 9.74174L30.4691 1.52802C30.0856 0.853942 29.1141 0.853942 28.7307 1.52802L24.0606 9.73782C23.9161 9.99175 23.6679 10.1698 23.381 10.2252L13.1236 12.2068C12.3495 12.3563 12.0448 13.3011 12.5858 13.8747Z" stroke="white" stroke-width="1.5"/>
<path d="M25.0058 44.8967C25.0058 46.8852 23.4019 48.4915 21.4306 48.4915C19.4593 48.4915 17.8555 46.8852 17.8555 44.8967C17.8555 42.9081 19.4593 41.3018 21.4306 41.3018C23.4019 41.3018 25.0058 42.9081 25.0058 44.8967Z" stroke="white" stroke-width="1.5"/>
<path d="M49.0364 43.4352C49.0364 42.2569 48.0812 41.3018 46.903 41.3018C45.7247 41.3018 44.7695 42.2569 44.7695 43.4352V46.358C44.7695 47.5362 45.7247 48.4914 46.903 48.4914C48.0812 48.4914 49.0364 47.5362 49.0364 46.358V43.4352Z" stroke="white" stroke-width="1.5"/>
</g>
<defs>
<clipPath id="clip0_1_1716">
<rect width="59" height="57" fill="white"/>
</clipPath>
</defs>
</svg>
