<svg width="41" height="42" viewBox="0 0 41 42" fill="none" xmlns="http://www.w3.org/2000/svg">
<circle cx="20.1316" cy="21.0002" r="20.1316" fill="#FF0A47"/>
<path d="M13.5237 21.8883C13.7191 21.8883 13.9234 21.8261 14.1188 21.7817C14.5144 21.6945 14.9033 21.5788 15.2822 21.4353C15.6943 21.2854 16.1472 21.2932 16.5538 21.4572C16.9604 21.6212 17.2921 21.9297 17.4849 22.3235L17.6803 22.7232C18.5453 22.2419 19.3402 21.6443 20.0428 20.9469C20.7402 20.2443 21.3379 19.4494 21.8191 18.5844L21.4461 18.3357C21.0523 18.1429 20.7437 17.8112 20.5798 17.4046C20.4158 16.998 20.408 16.5451 20.5579 16.133C20.6989 15.7533 20.8146 15.3646 20.9043 14.9696C20.9487 14.7742 20.9842 14.5699 21.0109 14.3656C21.1187 13.74 21.4464 13.1735 21.9349 12.768C22.4234 12.3626 23.0406 12.1449 23.6753 12.1541H26.3398C26.7226 12.1505 27.1016 12.2294 27.4511 12.3855C27.8007 12.5415 28.1125 12.7711 28.3653 13.0585C28.6182 13.3459 28.8061 13.6844 28.9164 14.0509C29.0266 14.4175 29.0566 14.8035 29.0043 15.1827C28.5311 18.9035 26.8318 22.3607 24.1748 25.0081C21.5178 27.6555 18.0544 29.3422 14.3319 29.8018H13.9944C13.3395 29.8027 12.7071 29.5625 12.2181 29.1268C11.9371 28.8755 11.7127 28.5674 11.5596 28.2229C11.4065 27.8784 11.3282 27.5054 11.3299 27.1284V24.464C11.3408 23.847 11.5655 23.253 11.9656 22.7833C12.3656 22.3135 12.9164 21.9972 13.5237 21.8883ZM13.0796 27.2172C13.0798 27.3434 13.1068 27.468 13.1588 27.5828C13.2109 27.6977 13.2868 27.8001 13.3816 27.8834C13.4805 27.9695 13.5965 28.0338 13.722 28.0721C13.8475 28.1104 13.9797 28.1217 14.1099 28.1054C17.4361 27.6789 20.5257 26.1572 22.8913 23.7803C25.257 21.4035 26.764 18.3067 27.1747 14.9784C27.1888 14.8483 27.1764 14.7167 27.1383 14.5915C27.1001 14.4664 27.0369 14.3502 26.9526 14.2501C26.8694 14.1554 26.767 14.0795 26.6521 14.0274C26.5372 13.9753 26.4126 13.9483 26.2865 13.9482H23.622C23.4155 13.9436 23.2138 14.0111 23.0517 14.1392C22.8896 14.2673 22.7772 14.4478 22.7339 14.6498C22.6984 14.8926 22.654 15.1324 22.6007 15.3692C22.4981 15.8374 22.3615 16.2975 22.1921 16.7459L23.4355 17.3232C23.5418 17.3719 23.6375 17.4412 23.7169 17.5271C23.7964 17.6129 23.8581 17.7136 23.8986 17.8234C23.939 17.9331 23.9573 18.0498 23.9526 18.1667C23.9478 18.2835 23.92 18.3983 23.8707 18.5044C22.5925 21.2424 20.3916 23.4433 17.6536 24.7215C17.4374 24.8104 17.1949 24.8104 16.9786 24.7215C16.8679 24.6819 16.7661 24.6207 16.6792 24.5414C16.5923 24.4621 16.522 24.3664 16.4724 24.2597L15.9217 23.0163C15.4626 23.1805 14.994 23.3169 14.5184 23.4248C14.2816 23.4781 14.0418 23.5225 13.799 23.558C13.597 23.6014 13.4165 23.7138 13.2884 23.8759C13.1603 24.038 13.0928 24.2397 13.0974 24.4462L13.0796 27.2172Z" fill="white"/>
</svg>
