<svg width="57" height="57" viewBox="0 0 57 57" fill="none" xmlns="http://www.w3.org/2000/svg">
<g clip-path="url(#clip0_14_17676)">
<path d="M23.8334 0.385763C23.2015 0.488456 22.6228 0.801634 22.1913 1.27449C21.7597 1.74735 21.5006 2.35215 21.4559 2.99078C21.4377 3.24206 21.5201 3.49026 21.6849 3.68082C21.8497 3.87138 22.0834 3.98868 22.3347 4.00695C22.8582 4.04423 23.3127 3.65144 23.3507 3.12816C23.3656 2.91546 23.4518 2.714 23.5955 2.55647C23.7392 2.39894 23.9319 2.29457 24.1424 2.2603C31.8555 0.988839 39.7008 3.16212 45.667 8.22207C57.4873 18.2465 58.3804 36.2377 47.3084 47.3099C42.4257 52.1925 35.8115 55.1 28.4818 55.1C13.7474 55.0898 1.77833 43.0088 1.90443 28.2701C1.94932 23.0231 3.52047 17.9601 6.44799 13.6284C6.51786 13.525 6.56668 13.4088 6.59165 13.2865C6.61661 13.1643 6.61724 13.0382 6.59348 12.9157C6.56973 12.7932 6.52207 12.6766 6.45322 12.5725C6.38437 12.4684 6.29568 12.3789 6.19222 12.3091C5.53678 11.8669 5.69399 10.8608 6.45368 10.6402L13.4973 8.59491C14.0593 8.432 14.6299 8.81909 14.6856 9.40174L14.7519 10.0943C14.821 10.816 15.6431 11.1978 16.2387 10.7846C19.8495 8.28073 24.0896 6.95726 28.501 6.95726C40.3812 6.95726 50.0464 16.6224 50.0464 28.5026C50.0464 40.3828 40.3812 50.0479 28.501 50.0479C16.6208 50.0479 6.9556 40.3828 6.9556 28.5026C6.9556 23.2411 8.87276 18.1751 12.3538 14.2377C12.5207 14.049 12.6057 13.8017 12.5902 13.5503C12.5748 13.2988 12.46 13.0638 12.2713 12.8969C12.1779 12.8143 12.0691 12.7509 11.9511 12.7103C11.8331 12.6697 11.7083 12.6527 11.5838 12.6604C11.4593 12.668 11.3375 12.7001 11.2254 12.7549C11.1133 12.8096 11.0131 12.8859 10.9305 12.9794C7.14202 17.2643 5.05565 22.7772 5.05565 28.5025C5.05565 41.4302 15.5731 51.9476 28.5009 51.9476C41.4286 51.9476 51.9461 41.4302 51.9461 28.5025C51.9461 15.5748 41.4288 5.05743 28.501 5.05743C24.1919 5.05743 20.0325 6.21823 16.3834 8.42749C15.8484 7.10283 14.3834 6.35965 12.9675 6.7706L5.92387 8.81577C3.97144 9.38251 3.29178 11.7002 4.43844 13.2286C-2.41719 24.005 -1.47037 38.7033 8.27752 48.542C13.673 53.9876 20.8526 56.9999 28.5013 56.9999C44.2508 56.9999 57.0097 44.2501 56.9984 28.4819C56.9861 11.0431 41.2566 -2.48511 23.8334 0.385763Z" fill="#1E1E1E"/>
<path d="M46.7199 27.8577C46.8442 27.8469 46.9651 27.8118 47.0758 27.7543C47.1865 27.6968 47.2848 27.618 47.365 27.5225C47.4453 27.427 47.506 27.3167 47.5436 27.1977C47.5812 27.0788 47.595 26.9536 47.5842 26.8294C46.7344 17.014 38.4985 9.34741 28.5011 9.34741C17.9387 9.34741 9.3457 17.9404 9.3457 28.5026C9.3457 39.0648 17.9387 47.6579 28.5011 47.6579C37.4444 47.6579 45.1143 41.4757 47.1394 32.9408C47.1944 32.6968 47.151 32.4409 47.0185 32.2287C46.8861 32.0166 46.6753 31.8652 46.4319 31.8075C46.1885 31.7497 45.9322 31.7903 45.7186 31.9204C45.5049 32.0505 45.3512 32.2595 45.2908 32.5023C43.4389 40.3071 36.5347 45.7582 28.5011 45.7582C18.9864 45.7582 11.2455 38.0174 11.2455 28.5028C11.2455 18.9881 18.9864 11.2472 28.5012 11.2472C37.3761 11.2472 44.9271 18.1638 45.6916 26.9933C45.7022 27.1177 45.7373 27.2387 45.7948 27.3494C45.8522 27.4602 45.9309 27.5585 46.0265 27.6388C46.122 27.7191 46.2324 27.7798 46.3514 27.8173C46.4704 27.8549 46.5956 27.8686 46.7199 27.8577Z" fill="#1E1E1E"/>
<path d="M40.3655 27.5527C40.1135 27.5527 39.8719 27.6528 39.6938 27.8309C39.5156 28.0091 39.4155 28.2507 39.4155 28.5026C39.4155 28.7545 39.5156 28.9962 39.6938 29.1743C39.8719 29.3524 40.1135 29.4525 40.3655 29.4525H42.3961C42.6481 29.4525 42.8897 29.3524 43.0678 29.1743C43.246 28.9962 43.346 28.7545 43.346 28.5026C43.346 28.2507 43.246 28.0091 43.0678 27.8309C42.8897 27.6528 42.6481 27.5527 42.3961 27.5527H40.3655ZM27.5517 40.3664V42.3971C27.5517 42.649 27.6518 42.8907 27.8299 43.0688C28.0081 43.2469 28.2497 43.347 28.5016 43.347C28.7536 43.347 28.9952 43.2469 29.1733 43.0688C29.3515 42.8907 29.4515 42.649 29.4515 42.3971V40.3664C29.4515 40.1145 29.3515 39.8729 29.1733 39.6947C28.9952 39.5166 28.7536 39.4165 28.5016 39.4165C28.2497 39.4165 28.0081 39.5166 27.8299 39.6947C27.6518 39.8729 27.5517 40.1145 27.5517 40.3664ZM28.5016 16.6606C28.7536 16.6606 28.9952 16.5606 29.1733 16.3824C29.3515 16.2043 29.4515 15.9627 29.4515 15.7107V14.6081C29.4515 14.3562 29.3515 14.1146 29.1733 13.9364C28.9952 13.7583 28.7536 13.6582 28.5016 13.6582C28.2497 13.6582 28.0081 13.7583 27.8299 13.9364C27.6518 14.1146 27.5517 14.3562 27.5517 14.6081V15.7107C27.5517 15.9627 27.6518 16.2043 27.8299 16.3824C28.0081 16.5606 28.2497 16.6606 28.5016 16.6606ZM14.6071 27.5527C14.3552 27.5527 14.1136 27.6528 13.9354 27.8309C13.7573 28.0091 13.6572 28.2507 13.6572 28.5026C13.6572 28.7545 13.7573 28.9962 13.9354 29.1743C14.1136 29.3524 14.3552 29.4525 14.6071 29.4525H16.6378C16.8897 29.4525 17.1314 29.3524 17.3095 29.1743C17.4876 28.9962 17.5877 28.7545 17.5877 28.5026C17.5877 28.2507 17.4876 28.0091 17.3095 27.8309C17.1314 27.6528 16.8897 27.5527 16.6378 27.5527H14.6071ZM32.2544 28.5026C32.2544 26.7613 31.0624 25.2937 29.4515 24.8719V19.0442C29.4515 18.7923 29.3515 18.5507 29.1733 18.3725C28.9952 18.1944 28.7536 18.0943 28.5016 18.0943C28.2497 18.0943 28.0081 18.1944 27.8299 18.3725C27.6518 18.5507 27.5517 18.7923 27.5517 19.0442V24.8719C25.0234 25.5339 23.9331 28.5202 25.4278 30.6517L22.6713 33.8941C22.1455 34.5125 22.5928 35.4593 23.3945 35.4593C23.5323 35.4595 23.6685 35.4297 23.7936 35.3719C23.9186 35.3141 24.0296 35.2297 24.1187 35.1247L26.874 31.8838C29.3436 33.0773 32.2544 31.2751 32.2544 28.5026ZM28.5016 30.3555C27.48 30.3555 26.6487 29.5242 26.6487 28.5026C26.6487 27.481 27.4799 26.6497 28.5016 26.6497C29.5234 26.6497 30.3546 27.481 30.3546 28.5026C30.3546 29.5242 29.5233 30.3555 28.5016 30.3555Z" fill="#1E1E1E"/>
</g>
<defs>
<clipPath id="clip0_14_17676">
<rect width="57" height="57" fill="white"/>
</clipPath>
</defs>
</svg>
