<svg width="57" height="57" viewBox="0 0 57 57" fill="none" xmlns="http://www.w3.org/2000/svg">
<g clip-path="url(#clip0_14_17664)">
<path d="M31.6951 35.7128C33.6997 35.9371 35.7519 34.9218 36.5362 32.8118C39.9388 32.3355 42.5133 29.4315 42.5133 25.9222C42.5133 23.7554 41.5161 21.75 39.847 20.4447C42.3153 17.3479 40.7427 12.6754 36.8669 11.7205C36.8701 8.83314 34.3949 7.03111 31.6956 7.26267C31.5706 7.2724 31.4488 7.30678 31.3371 7.36382C31.2254 7.42087 31.1262 7.49946 31.045 7.59505C30.9639 7.69064 30.9025 7.80135 30.8644 7.92079C30.8262 8.04023 30.8121 8.16605 30.8228 8.29097C30.8335 8.4159 30.8688 8.53747 30.9268 8.64867C30.9847 8.75987 31.0641 8.85851 31.1603 8.93889C31.2565 9.01928 31.3677 9.07981 31.4874 9.11702C31.6072 9.15422 31.7331 9.16736 31.8579 9.15566C32.8257 9.0723 33.7868 9.41584 34.3651 10.051C34.7766 10.503 34.9777 11.0701 34.9681 11.7417C33.7833 12.1035 32.9253 12.924 32.5663 14.072C32.529 14.1911 32.5156 14.3163 32.5268 14.4406C32.538 14.5648 32.5735 14.6857 32.6314 14.7962C32.6893 14.9067 32.7684 15.0047 32.8642 15.0847C32.9599 15.1646 33.0705 15.2249 33.1896 15.2621C33.6925 15.4192 34.2238 15.1376 34.3797 14.6388C34.6268 13.8483 35.3085 13.5685 35.872 13.4767C37.7076 13.6382 39.1326 15.1853 39.1326 17.0392C39.1326 18.1442 38.6325 19.1704 37.7608 19.855C37.2199 20.2798 37.2963 21.1227 37.9052 21.443C39.5754 22.3216 40.613 24.038 40.613 25.9221C40.613 28.6418 38.4857 30.8616 35.7702 30.9755C35.5617 30.9842 35.3618 31.0614 35.2015 31.195C35.0412 31.3286 34.9294 31.5113 34.8833 31.7148C34.485 33.4732 33.0305 33.9495 31.9063 33.8245C30.6839 33.6879 29.4503 32.7936 29.4503 31.104V11.8578C29.4503 10.006 28.5801 8.50883 27.0628 7.74966C24.1798 6.30721 20.1291 7.98977 20.1336 11.7205C16.257 12.6759 14.6857 17.3483 17.1536 20.4447C15.4844 21.75 14.4873 23.7554 14.4873 25.9222C14.4873 29.431 17.0613 32.3347 20.4632 32.8116C21.2194 34.8646 23.1544 35.9048 25.193 35.7241C25.4439 35.7017 25.6757 35.5805 25.8374 35.3872C25.999 35.194 26.0773 34.9444 26.055 34.6934C26.044 34.5691 26.0086 34.4482 25.9509 34.3376C25.8931 34.227 25.8141 34.1288 25.7184 34.0487C25.6227 33.9687 25.5121 33.9083 25.393 33.871C25.2739 33.8337 25.1486 33.8203 25.0243 33.8314C23.9276 33.9302 22.5063 33.4335 22.117 31.7148C22.0709 31.5113 21.959 31.3287 21.7987 31.195C21.6385 31.0614 21.4387 30.9843 21.2302 30.9755C18.5146 30.8616 16.3873 28.6419 16.3873 25.9221C16.3873 24.038 17.4248 22.3218 19.0952 21.443C19.7039 21.1227 19.7806 20.2798 19.2396 19.855C18.3678 19.1704 17.8678 18.1442 17.8678 17.0392C17.8678 15.1854 19.2928 13.6382 21.1283 13.4767C21.6919 13.5685 22.3735 13.8482 22.6206 14.6388C22.681 14.832 22.8015 15.0009 22.9646 15.1208C23.1276 15.2407 23.3247 15.3055 23.5271 15.3056C24.1663 15.3056 24.6256 14.6844 24.4342 14.0719C24.0754 12.9243 23.2179 12.1041 22.034 11.742C22.0212 10.7024 22.5178 10.085 22.9799 9.73872C24.4971 8.60241 27.5503 8.97813 27.5503 11.8578V31.1039C27.5503 33.952 29.6989 35.4894 31.6951 35.7128Z" fill="white"/>
<path d="M35.7399 23.187C35.2198 23.1762 34.7828 23.5934 34.7737 24.1205C34.7707 24.2939 34.7199 24.463 34.627 24.6094C33.7477 24.1629 32.7461 24.191 31.8916 24.5798C31.6623 24.6843 31.4839 24.8755 31.3956 25.1115C31.3073 25.3475 31.3164 25.6089 31.4209 25.8382C31.5253 26.0675 31.7166 26.2459 31.9526 26.3342C32.1886 26.4225 32.45 26.4134 32.6793 26.309C32.8424 26.2346 33.1704 26.1233 33.5356 26.2167C34.2273 26.3928 34.4925 27.201 34.4941 27.2063C34.5536 27.4009 34.6739 27.5713 34.8374 27.6924C35.0008 27.8135 35.1989 27.879 35.4023 27.8792C36.0389 27.8792 36.4979 27.2628 36.3112 26.6515C36.2894 26.5802 36.1958 26.296 35.995 25.9477C36.4223 25.4463 36.6621 24.812 36.6733 24.1533C36.6755 24.0285 36.6531 23.9046 36.6073 23.7885C36.5616 23.6725 36.4934 23.5665 36.4068 23.4768C36.3201 23.3871 36.2166 23.3153 36.1022 23.2656C35.9878 23.2159 35.8647 23.1892 35.7399 23.187ZM21.791 28.3064C22.2886 28.4622 22.8215 28.1821 22.9805 27.6841C22.983 27.676 23.2481 26.8678 23.9399 26.6917C24.0608 26.6609 24.1744 26.6066 24.2744 26.5319C24.3743 26.4572 24.4585 26.3635 24.5222 26.2563C24.586 26.149 24.6279 26.0303 24.6458 25.9068C24.6636 25.7833 24.6569 25.6575 24.6261 25.5366C24.4966 25.0281 23.9793 24.7216 23.471 24.8503C23.2548 24.9053 23.0453 24.9842 22.8464 25.0855C22.593 24.6774 22.6605 24.0673 23.1615 23.7613C23.3765 23.63 23.5305 23.4186 23.5897 23.1737C23.6488 22.9288 23.6083 22.6704 23.477 22.4554C23.3456 22.2404 23.1343 22.0864 22.8894 22.0272C22.6445 21.968 22.3861 22.0085 22.1711 22.1399C20.6012 23.0987 20.3966 25.1625 21.4779 26.4264C21.2786 26.773 21.1856 27.0555 21.1638 27.1265C21.0116 27.6261 21.2923 28.1509 21.791 28.3064Z" fill="white"/>
<path d="M28.5001 0C16.6078 0 7.03095 9.55237 7.00625 21.4483C6.98903 29.7789 11.7443 37.1873 18.9793 40.7675C20.3247 41.4332 21.2826 42.7233 21.5416 44.2186C21.5798 44.4391 21.6947 44.6391 21.866 44.7832C22.0372 44.9274 22.2539 45.0064 22.4777 45.0064H29.8445C30.0964 45.0064 30.3381 44.9063 30.5162 44.7281C30.6944 44.55 30.7945 44.3083 30.7945 44.0564C30.7945 43.8044 30.6944 43.5628 30.5162 43.3846C30.3381 43.2065 30.0964 43.1064 29.8445 43.1064H23.2273C22.6987 41.3556 21.4671 39.8787 19.8219 39.0647C13.0734 35.7252 8.89069 28.9765 8.90625 21.4522C8.92857 10.671 17.7185 1.89988 28.5002 1.9C39.3041 1.90012 48.0938 10.6899 48.0938 21.4937C48.0938 28.9953 43.9151 35.7261 37.1882 39.0595C34.9055 40.1906 33.4875 42.483 33.4875 45.042C33.4875 50.4825 33.5128 50.3752 33.417 50.9437H30.1625C29.9105 50.9437 29.6689 51.0438 29.4907 51.222C29.3126 51.4002 29.2125 51.6418 29.2125 51.8937C29.2125 52.1457 29.3126 52.3873 29.4907 52.5655C29.6689 52.7437 29.9105 52.8438 30.1625 52.8438H32.6701C31.778 54.2013 30.2424 55.1 28.5 55.1C25.7499 55.1 23.5125 52.8626 23.5125 50.1125V49.4H26.7188C26.9707 49.4 27.2123 49.2999 27.3905 49.1217C27.5687 48.9436 27.6687 48.702 27.6687 48.45C27.6687 48.198 27.5687 47.9564 27.3905 47.7782C27.2123 47.6001 26.9707 47.5 26.7188 47.5H22.5625C22.3105 47.5 22.0689 47.6001 21.8907 47.7782C21.7126 47.9564 21.6125 48.198 21.6125 48.45V50.1125C21.6125 53.9102 24.7023 57 28.5 57C32.2866 57 35.3875 53.9176 35.3875 50.1125V45.042C35.3875 43.2103 36.4007 41.5702 38.0318 40.7619C45.2288 37.1956 49.9937 29.8219 49.9937 21.4937C49.9937 9.64214 40.3517 0.00011875 28.5001 0ZM3.8 20.5437H0.95C0.698044 20.5437 0.456408 20.6438 0.278249 20.822C0.100089 21.0002 0 21.2418 0 21.4937C0 21.7457 0.100089 21.9873 0.278249 22.1655C0.456408 22.3437 0.698044 22.4438 0.95 22.4438H3.8C4.05196 22.4438 4.29359 22.3437 4.47175 22.1655C4.64991 21.9873 4.75 21.7457 4.75 21.4937C4.75 21.2418 4.64991 21.0002 4.47175 20.822C4.29359 20.6438 4.05196 20.5437 3.8 20.5437ZM10.3627 4.70001C10.5409 4.87817 10.7825 4.97826 11.0345 4.97826C11.1592 4.97826 11.2828 4.95369 11.398 4.90595C11.5133 4.8582 11.618 4.78822 11.7063 4.70001C11.7945 4.61179 11.8645 4.50706 11.9122 4.3918C11.9599 4.27653 11.9845 4.153 11.9845 4.02824C11.9845 3.90348 11.9599 3.77994 11.9122 3.66468C11.8645 3.54942 11.7945 3.44469 11.7063 3.35647L9.69095 1.34116C9.51279 1.163 9.27114 1.06291 9.01918 1.06291C8.76722 1.06291 8.52558 1.163 8.34741 1.34116C8.16925 1.51933 8.06916 1.76097 8.06916 2.01293C8.06916 2.26489 8.16925 2.50654 8.34741 2.6847L10.3627 4.70001ZM10.3627 38.2875L8.34741 40.3028C8.25919 40.391 8.18922 40.4957 8.14147 40.611C8.09373 40.7263 8.06916 40.8498 8.06916 40.9746C8.06916 41.0993 8.09373 41.2229 8.14147 41.3381C8.18922 41.4534 8.25919 41.5581 8.34741 41.6463C8.43563 41.7346 8.54036 41.8045 8.65562 41.8523C8.77088 41.9 8.89442 41.9246 9.01918 41.9246C9.14394 41.9246 9.26748 41.9 9.38274 41.8523C9.498 41.8045 9.60273 41.7346 9.69095 41.6463L11.7063 39.631C11.8844 39.4529 11.9845 39.2112 11.9845 38.9593C11.9845 38.7073 11.8844 38.4657 11.7063 38.2875C11.5281 38.1093 11.2864 38.0092 11.0345 38.0092C10.7825 38.0092 10.5409 38.1093 10.3627 38.2875ZM56.05 20.5437H53.2C52.948 20.5437 52.7064 20.6438 52.5282 20.822C52.3501 21.0002 52.25 21.2418 52.25 21.4937C52.25 21.7457 52.3501 21.9873 52.5282 22.1655C52.7064 22.3437 52.948 22.4438 53.2 22.4438H56.05C56.302 22.4438 56.5436 22.3437 56.7218 22.1655C56.8999 21.9873 57 21.7457 57 21.4937C57 21.2418 56.8999 21.0002 56.7218 20.822C56.5436 20.6438 56.302 20.5437 56.05 20.5437ZM45.9655 4.97824C46.0903 4.97841 46.2139 4.95392 46.3292 4.90617C46.4445 4.85842 46.5492 4.78836 46.6373 4.70001L48.6526 2.6847C48.8307 2.50654 48.9308 2.26489 48.9308 2.01293C48.9308 1.76097 48.8307 1.51933 48.6526 1.34116C48.4744 1.163 48.2328 1.06291 47.9808 1.06291C47.7289 1.06291 47.4872 1.163 47.309 1.34116L45.2937 3.35647C44.6935 3.95687 45.1268 4.97824 45.9655 4.97824ZM46.6373 38.2875C46.4591 38.1093 46.2175 38.0092 45.9655 38.0092C45.7136 38.0092 45.4719 38.1093 45.2937 38.2875C45.1156 38.4657 45.0155 38.7073 45.0155 38.9593C45.0155 39.2112 45.1156 39.4529 45.2937 39.631L47.309 41.6463C47.3972 41.7347 47.5019 41.8047 47.6172 41.8525C47.7325 41.9002 47.856 41.9247 47.9808 41.9246C48.8198 41.9246 49.2528 40.9031 48.6526 40.3028L46.6373 38.2875Z" fill="white"/>
</g>
<defs>
<clipPath id="clip0_14_17664">
<rect width="57" height="57" fill="white"/>
</clipPath>
</defs>
</svg>
