<svg width="57" height="57" viewBox="0 0 57 57" fill="none" xmlns="http://www.w3.org/2000/svg">
<path d="M52.9626 46.668H50.5379C50.2859 46.668 50.0443 46.7681 49.8661 46.9462C49.688 47.1244 49.5879 47.366 49.5879 47.618C49.5879 47.8699 49.688 48.1115 49.8661 48.2897C50.0443 48.4678 50.2859 48.5679 50.5379 48.5679H52.9626C53.4864 48.5679 53.9126 48.9941 53.9126 49.5179V50.3416C53.9126 52.9607 51.7818 55.0915 49.1627 55.0915C47.5913 55.0915 46.3127 53.8129 46.3127 52.2415V6.65749C46.3127 2.85708 43.1412 -0.180497 39.3103 0.0167435C35.7791 0.199734 33.0129 3.1562 33.0129 6.74774V7.48112C33.0129 8.00492 32.5868 8.43111 32.063 8.43111H4.03843C3.51463 8.43111 3.08844 8.00492 3.08844 7.48112V6.64989C3.08844 4.03078 5.21926 1.89997 7.83837 1.89997H29.2724C29.5243 1.89997 29.766 1.79988 29.9441 1.62172C30.1223 1.44357 30.2224 1.20194 30.2224 0.949984C30.2224 0.698033 30.1223 0.4564 29.9441 0.278244C29.766 0.100087 29.5243 0 29.2724 0L7.83837 0C4.17166 0 1.18848 2.98307 1.18848 6.64989V7.48112C1.18848 9.05252 2.46704 10.3311 4.03843 10.3311H32.063C33.6343 10.3311 34.9129 9.05252 34.9129 7.48112V6.74774C34.9129 4.16794 36.8877 2.04484 39.4086 1.91422C42.1365 1.77433 44.4128 3.93258 44.4128 6.65749V52.2414C44.4117 53.273 44.7484 54.2767 45.3714 55.099C45.3714 55.099 15.0844 55.0978 15.0662 55.0982C12.3995 55.1433 10.2133 53.0086 10.2133 50.349V14.1539C10.2133 13.902 10.1132 13.6603 9.93508 13.4822C9.75692 13.304 9.51529 13.2039 9.26334 13.2039C9.01139 13.2039 8.76976 13.304 8.5916 13.4822C8.41344 13.6603 8.31336 13.902 8.31336 14.1539V50.3492C8.31336 54.048 11.3228 56.9992 14.9828 56.999C51.8372 56.9979 49.3096 57.0072 49.4433 56.9842C52.9803 56.8366 55.8127 53.9142 55.8127 50.3414V49.5179C55.8126 47.9465 54.534 46.668 52.9626 46.668Z" fill="white"/>
<path d="M39.1879 17.5747C39.4399 17.5747 39.6815 17.4746 39.8597 17.2964C40.0378 17.1183 40.1379 16.8766 40.1379 16.6247C40.1379 16.3727 40.0378 16.1311 39.8597 15.9529C39.6815 15.7748 39.4399 15.6747 39.1879 15.6747H20.1882C19.9363 15.6747 19.6947 15.7748 19.5165 15.9529C19.3383 16.1311 19.2382 16.3727 19.2382 16.6247C19.2382 16.8766 19.3383 17.1183 19.5165 17.2964C19.6947 17.4746 19.9363 17.5747 20.1882 17.5747H39.1879ZM39.1879 28.9745H34.5567C34.3048 28.9745 34.0632 29.0745 33.885 29.2527C33.7068 29.4309 33.6068 29.6725 33.6068 29.9244C33.6068 30.1764 33.7068 30.418 33.885 30.5962C34.0632 30.7743 34.3048 30.8744 34.5567 30.8744H39.1879C39.4399 30.8744 39.6815 30.7743 39.8597 30.5962C40.0378 30.418 40.1379 30.1764 40.1379 29.9244C40.1379 29.6725 40.0378 29.4309 39.8597 29.2527C39.6815 29.0745 39.4399 28.9745 39.1879 28.9745ZM39.1879 42.2742H34.5567C34.3048 42.2742 34.0632 42.3743 33.885 42.5525C33.7068 42.7306 33.6068 42.9723 33.6068 43.2242C33.6068 43.4762 33.7068 43.7178 33.885 43.896C34.0632 44.0741 34.3048 44.1742 34.5567 44.1742H39.1879C39.4399 44.1742 39.6815 44.0741 39.8597 43.896C40.0378 43.7178 40.1379 43.4762 40.1379 43.2242C40.1379 42.9723 40.0378 42.7306 39.8597 42.5525C39.6815 42.3743 39.4399 42.2742 39.1879 42.2742ZM14.4883 23.2746C14.4883 23.5265 14.5884 23.7681 14.7666 23.9463C14.9447 24.1245 15.1864 24.2245 15.4383 24.2245H39.1879C39.4399 24.2245 39.6815 24.1245 39.8597 23.9463C40.0378 23.7681 40.1379 23.5265 40.1379 23.2746C40.1379 23.0226 40.0378 22.781 39.8597 22.6028C39.6815 22.4247 39.4399 22.3246 39.1879 22.3246H15.4383C15.1864 22.3246 14.9447 22.4247 14.7666 22.6028C14.5884 22.781 14.4883 23.0226 14.4883 23.2746ZM39.1879 35.6243H35.9817C35.7298 35.6243 35.4881 35.7244 35.31 35.9026C35.1318 36.0807 35.0317 36.3224 35.0317 36.5743C35.0317 36.8263 35.1318 37.0679 35.31 37.2461C35.4881 37.4242 35.7298 37.5243 35.9817 37.5243H39.1879C39.4399 37.5243 39.6815 37.4242 39.8597 37.2461C40.0378 37.0679 40.1379 36.8263 40.1379 36.5743C40.1379 36.3224 40.0378 36.0807 39.8597 35.9026C39.6815 35.7244 39.4399 35.6243 39.1879 35.6243ZM15.3487 40.2431C15.4604 40.4676 15.6565 40.6389 15.8941 40.7195C16.1316 40.8 16.3914 40.7834 16.6167 40.6731C16.8421 40.5628 17.0146 40.3679 17.0968 40.1309C17.1789 39.8938 17.164 39.6339 17.0552 39.4079C14.9346 35.0744 18.0883 29.9244 22.9788 29.9244C26.6129 29.9244 29.5693 32.8809 29.5693 36.515C29.5693 41.4969 24.228 44.6694 19.8624 42.3228C19.4026 41.9743 18.7413 42.1114 18.4562 42.6236C18.336 42.8369 18.3905 42.6181 17.7923 47.3437C17.5307 49.4102 19.5025 51.0484 21.484 50.4173L22.9827 49.9403L24.4814 50.4173C26.337 51.0083 28.1624 49.6155 28.1959 47.7611C28.2004 47.5092 28.1047 47.2658 27.9298 47.0845C27.7549 46.9031 27.5151 46.7986 27.2632 46.794C26.7431 46.7838 26.3058 47.1987 26.2962 47.7267C26.2851 48.3332 25.6821 48.8054 25.0576 48.6067L23.2708 48.038C23.0833 47.9784 22.882 47.9784 22.6945 48.038L20.9077 48.6067C20.2451 48.8168 19.5897 48.2727 19.6771 47.5823L20.0683 44.4919C25.6225 46.5138 31.4693 42.3766 31.4693 36.515C31.4693 31.8333 27.6605 28.0245 22.9788 28.0245C16.6709 28.0245 12.6165 34.6605 15.3487 40.2431Z" fill="white"/>
</svg>
