<svg width="19" height="19" viewBox="0 0 19 19" fill="none" xmlns="http://www.w3.org/2000/svg">
<g clip-path="url(#clip0_14_18315)">
<path d="M12.667 12.6668C12.667 11.792 10.1859 11.0835 7.12533 11.0835M12.667 12.6668C12.667 13.5416 10.1859 14.2502 7.12533 14.2502C4.06474 14.2502 1.58366 13.5416 1.58366 12.6668M12.667 12.6668V16.5753C12.667 17.477 10.1859 18.2085 7.12533 18.2085C4.06474 18.2085 1.58366 17.4778 1.58366 16.5753V12.6668M12.667 12.6668C15.6943 12.6668 18.2087 11.8855 18.2087 11.0835V3.16683M7.12533 11.0835C4.06474 11.0835 1.58366 11.792 1.58366 12.6668M7.12533 11.0835C3.62774 11.0835 0.791992 10.3021 0.791992 9.50016V5.54183M7.12533 3.9585C3.62774 3.9585 0.791992 4.66704 0.791992 5.54183M0.791992 5.54183C0.791992 6.41662 3.62774 7.12516 7.12533 7.12516C7.12533 7.92712 9.70062 8.7085 12.7279 8.7085C15.7553 8.7085 18.2087 7.92712 18.2087 7.12516M18.2087 3.16683C18.2087 2.29204 15.7545 1.5835 12.7279 1.5835C9.70141 1.5835 7.24724 2.29204 7.24724 3.16683M18.2087 3.16683C18.2087 4.04162 15.7545 4.75016 12.7279 4.75016C9.70141 4.75016 7.24724 4.04162 7.24724 3.16683M7.24724 3.16683V11.2149" stroke="#1E1E1E" stroke-width="1.7"/>
</g>
<defs>
<clipPath id="clip0_14_18315">
<rect width="19" height="19" fill="white"/>
</clipPath>
</defs>
</svg>
