<svg width="575" height="400" viewBox="0 0 575 400" fill="none" xmlns="http://www.w3.org/2000/svg">
<g opacity="0.8">
<circle opacity="0.8" cx="426.634" cy="282.631" r="162.472" stroke="#FF0A47" stroke-opacity="0.22" stroke-width="1.45335"/>
<circle opacity="0.7" cx="426.631" cy="282.632" r="214.738" stroke="#FF0A47" stroke-opacity="0.22" stroke-width="1.45335"/>
<circle opacity="0.6" cx="426.632" cy="282.631" r="269.137" stroke="#FF0A47" stroke-opacity="0.22" stroke-width="1.45335"/>
<circle opacity="0.5" cx="426.629" cy="282.632" r="323.003" stroke="#FF0A47" stroke-opacity="0.22" stroke-width="1.45335"/>
<circle opacity="0.4" cx="426.63" cy="282.632" r="379.536" stroke="#FF0A47" stroke-opacity="0.22" stroke-width="1.45335"/>
<circle opacity="0.3" cx="426.632" cy="282.632" r="444.069" stroke="#FF0A47" stroke-opacity="0.22" stroke-width="1.45335"/>
<circle opacity="0.2" cx="426.5" cy="282.5" r="507.773" stroke="#FF0A47" stroke-opacity="0.22" stroke-width="1.45335"/>
</g>
<g filter="url(#filter0_d_1_1192)">
<circle cx="426.632" cy="282.632" r="102.739" stroke="#FF0A47" stroke-opacity="0.22" stroke-width="1.45335" shape-rendering="crispEdges"/>
</g>
<g opacity="0.36" filter="url(#filter1_f_1_1192)">
<path d="M382.113 237.728V327.535H471.147V237.728H382.113ZM397.044 312.474V252.788H456.216V312.474H397.044Z" fill="#FF0A47" fill-opacity="0.22"/>
<path d="M435.928 309.455V290.698L427.97 282.671L435.967 274.604V255.809L409.376 282.671L435.928 309.455Z" fill="#FF0A47" fill-opacity="0.22"/>
</g>
<path d="M382.113 237.728V327.535H471.147V237.728H382.113ZM397.044 312.474V252.788H456.216V312.474H397.044Z" fill="#FF0A47"/>
<path d="M435.928 309.455V290.698L427.97 282.671L435.967 274.604V255.809L409.376 282.671L435.928 309.455Z" fill="#FF0A47"/>
<circle cx="15.2027" cy="15.2027" r="14.4761" transform="matrix(-1 0 0 1 121.406 322)" fill="#FF0A47" stroke="#FF648A" stroke-width="1.45335"/>
<path d="M109.433 346.773V340.081L106.594 337.217L109.447 334.338V327.632L99.959 337.217L109.433 346.773Z" stroke="#FF648A" stroke-width="1.45335"/>
<circle cx="15.2027" cy="15.2027" r="14.4761" transform="matrix(-1 0 0 1 290.32 317.916)" fill="#FF0A47" stroke="#FF648A" stroke-width="1.45335"/>
<path d="M278.347 342.689V335.997L275.508 333.133L278.361 330.254V323.548L268.873 333.133L278.347 342.689Z" stroke="#FF648A" stroke-width="1.45335"/>
<circle cx="15.2027" cy="15.2027" r="14.4761" transform="matrix(-1 0 0 1 231.406 232)" fill="#FF0A47" stroke="#FF648A" stroke-width="1.45335"/>
<path d="M219.433 256.773V250.081L216.594 247.217L219.447 244.338V237.632L209.959 247.217L219.433 256.773Z" stroke="#FF648A" stroke-width="1.45335"/>
<defs>
<filter id="filter0_d_1_1192" x="310.366" y="166.366" width="232.532" height="232.532" filterUnits="userSpaceOnUse" color-interpolation-filters="sRGB">
<feFlood flood-opacity="0" result="BackgroundImageFix"/>
<feColorMatrix in="SourceAlpha" type="matrix" values="0 0 0 0 0 0 0 0 0 0 0 0 0 0 0 0 0 0 127 0" result="hardAlpha"/>
<feOffset/>
<feGaussianBlur stdDeviation="6.4"/>
<feComposite in2="hardAlpha" operator="out"/>
<feColorMatrix type="matrix" values="0 0 0 0 1 0 0 0 0 1 0 0 0 0 1 0 0 0 1 0"/>
<feBlend mode="normal" in2="BackgroundImageFix" result="effect1_dropShadow_1_1192"/>
<feBlend mode="normal" in="SourceGraphic" in2="effect1_dropShadow_1_1192" result="shape"/>
</filter>
<filter id="filter1_f_1_1192" x="362.313" y="217.928" width="128.633" height="129.408" filterUnits="userSpaceOnUse" color-interpolation-filters="sRGB">
<feFlood flood-opacity="0" result="BackgroundImageFix"/>
<feBlend mode="normal" in="SourceGraphic" in2="BackgroundImageFix" result="shape"/>
<feGaussianBlur stdDeviation="9.9" result="effect1_foregroundBlur_1_1192"/>
</filter>
</defs>
</svg>
