<svg width="34" height="34" viewBox="0 0 34 34" fill="none" xmlns="http://www.w3.org/2000/svg">
<rect width="34" height="34" fill="#919191"/>
<g clip-path="url(#clip0_0_1)">
<rect width="1920" height="12048" transform="translate(-1424 -9117)" fill="white"/>
<circle cx="17" cy="17" r="28" fill="#29A9EA"/>
<g clip-path="url(#clip1_0_1)">
<path fill-rule="evenodd" clip-rule="evenodd" d="M28.0161 6.27578C28.3662 6.12844 28.7494 6.07762 29.1258 6.12862C29.5022 6.17961 29.858 6.33056 30.1563 6.56575C30.4545 6.80095 30.6843 7.11178 30.8216 7.4659C30.959 7.82002 30.9989 8.20449 30.9373 8.57928L27.7243 28.0684C27.4126 29.9483 25.3499 31.0264 23.6259 30.09C22.1837 29.3065 20.0417 28.0995 18.115 26.8401C17.1517 26.2097 14.2008 24.191 14.5634 22.7545C14.8751 21.5262 19.8334 16.9107 22.6668 14.1666C23.7789 13.0885 23.2717 12.4666 21.9584 13.4583C18.6973 15.9205 13.4613 19.6647 11.7301 20.7187C10.2029 21.648 9.40678 21.8067 8.45478 21.648C6.71794 21.359 5.1072 20.9114 3.79253 20.366C2.01603 19.6293 2.10245 17.187 3.79111 16.4758L28.0161 6.27578Z" fill="white"/>
</g>
</g>
<defs>
<clipPath id="clip0_0_1">
<rect width="1920" height="12048" fill="white" transform="translate(-1424 -9117)"/>
</clipPath>
<clipPath id="clip1_0_1">
<rect width="34" height="34" fill="white"/>
</clipPath>
</defs>
</svg>
