<svg width="34" height="34" viewBox="0 0 34 34" fill="none" xmlns="http://www.w3.org/2000/svg">
<rect width="34" height="34" fill="#919191"/>
<g clip-path="url(#clip0_0_1)">
<rect width="1920" height="12048" transform="translate(-1497 -9117)" fill="white"/>
<ellipse cx="17.5" cy="17" rx="28.5" ry="28" fill="#54CC61"/>
<path d="M17.0007 2.83398C24.8249 2.83398 31.1673 9.1764 31.1673 17.0007C31.1673 24.8249 24.8249 31.1673 17.0007 31.1673C14.4971 31.1716 12.0375 30.5091 9.87484 29.2477L2.83967 31.1673L4.75501 24.1293C3.4927 21.966 2.82962 19.5053 2.83401 17.0007C2.83401 9.1764 9.17642 2.83398 17.0007 2.83398ZM12.1727 10.3423L11.8893 10.3537C11.7062 10.3663 11.5272 10.4144 11.3623 10.4953C11.2087 10.5825 11.0685 10.6912 10.9458 10.8183C10.7758 10.9784 10.6795 11.1172 10.5761 11.2518C10.0521 11.9331 9.76997 12.7695 9.77426 13.629C9.77709 14.3232 9.95842 14.9989 10.2418 15.6307C10.8212 16.9086 11.7746 18.2615 13.0326 19.5152C13.3358 19.817 13.6333 20.1202 13.9534 20.4021C15.5166 21.7782 17.3793 22.7707 19.3934 23.3006L20.1981 23.4238C20.4602 23.438 20.7223 23.4181 20.9858 23.4054C21.3983 23.3836 21.801 23.272 22.1658 23.0782C22.3512 22.9823 22.5322 22.8783 22.7084 22.7665C22.7084 22.7665 22.7684 22.7259 22.8855 22.639C23.0768 22.4973 23.1943 22.3967 23.353 22.231C23.472 22.1082 23.5712 21.9656 23.6505 21.8032C23.761 21.5722 23.8715 21.1316 23.9168 20.7647C23.9508 20.4842 23.9409 20.3312 23.9367 20.2363C23.931 20.0847 23.8049 19.9275 23.6675 19.8609L22.843 19.4912C22.843 19.4912 21.6105 18.9542 20.8568 18.6114C20.7779 18.5771 20.6935 18.5574 20.6075 18.5533C20.5106 18.5432 20.4126 18.554 20.3202 18.585C20.2278 18.6161 20.1432 18.6666 20.072 18.7332C20.0649 18.7304 19.97 18.8112 18.9458 20.0522C18.887 20.1311 18.806 20.1908 18.7131 20.2236C18.6203 20.2564 18.5198 20.2609 18.4244 20.2363C18.3321 20.2117 18.2417 20.1805 18.1538 20.1428C17.9782 20.0692 17.9173 20.0408 17.7968 19.9898C16.9835 19.6355 16.2306 19.1561 15.5656 18.5689C15.3871 18.4131 15.2213 18.2431 15.0513 18.0787C14.494 17.5449 14.0083 16.9411 13.6063 16.2824L13.5228 16.1478C13.4636 16.0569 13.4151 15.9594 13.3783 15.8574C13.3244 15.6492 13.4647 15.482 13.4647 15.482C13.4647 15.482 13.8089 15.1052 13.969 14.9011C14.1248 14.7028 14.2566 14.5102 14.3416 14.3727C14.5088 14.1036 14.5612 13.8273 14.4733 13.6134C14.0767 12.6444 13.6668 11.6806 13.2437 10.722C13.1601 10.5322 12.9122 10.3962 12.6869 10.3692C12.6104 10.3598 12.5339 10.3522 12.4574 10.3466C12.2672 10.3357 12.0765 10.3376 11.8865 10.3522L12.1727 10.3423Z" fill="white"/>
</g>
<defs>
<clipPath id="clip0_0_1">
<rect width="1920" height="12048" fill="white" transform="translate(-1497 -9117)"/>
</clipPath>
</defs>
</svg>
